<mxfile host="Electron" modified="2024-02-11T16:33:43.131Z" agent="Mozilla/5.0 (Windows NT 10.0; Win64; x64) AppleWebKit/537.36 (KHTML, like Gecko) draw.io/23.0.2 Chrome/120.0.6099.109 Electron/28.1.0 Safari/537.36" etag="K3PumgvyoND-DOh-ZaLU" version="23.0.2" type="device" pages="5">
  <diagram id="NDx0Tlph9TBMdy-TcKuA" name="Actors">
    <mxGraphModel dx="1134" dy="869" grid="1" gridSize="10" guides="1" tooltips="1" connect="1" arrows="1" fold="1" page="1" pageScale="1" pageWidth="850" pageHeight="1100" math="0" shadow="0">
      <root>
        <mxCell id="0" />
        <mxCell id="1" parent="0" />
        <mxCell id="xKKj4482rK_SijKV01lH-2" value="Actors" style="shape=rect;html=1;verticalAlign=top;fontStyle=1;whiteSpace=wrap;align=center;fillColor=#f5f5f5;fontColor=#333333;strokeColor=#666666;" vertex="1" parent="1">
          <mxGeometry x="40" y="40" width="600" height="530" as="geometry" />
        </mxCell>
        <mxCell id="fFgOzb7KKSf1Zzju4vVw-1" value="Admin" style="shape=umlActor;html=1;verticalLabelPosition=bottom;verticalAlign=top;align=center;fillColor=#e1d5e7;strokeColor=#9673a6;" parent="1" vertex="1">
          <mxGeometry x="82.5" y="130" width="30" height="60" as="geometry" />
        </mxCell>
        <mxCell id="fFgOzb7KKSf1Zzju4vVw-2" value="Manager" style="shape=umlActor;html=1;verticalLabelPosition=bottom;verticalAlign=top;align=center;fillColor=#e1d5e7;strokeColor=#9673a6;" parent="1" vertex="1">
          <mxGeometry x="132.5" y="130" width="30" height="60" as="geometry" />
        </mxCell>
        <mxCell id="fFgOzb7KKSf1Zzju4vVw-3" value="Lawyer" style="shape=umlActor;html=1;verticalLabelPosition=bottom;verticalAlign=top;align=center;fillColor=#e1d5e7;strokeColor=#9673a6;" parent="1" vertex="1">
          <mxGeometry x="182.5" y="130" width="30" height="60" as="geometry" />
        </mxCell>
        <mxCell id="fFgOzb7KKSf1Zzju4vVw-4" value="Vendor" style="shape=umlActor;html=1;verticalLabelPosition=bottom;verticalAlign=top;align=center;fillColor=#e1d5e7;strokeColor=#9673a6;" parent="1" vertex="1">
          <mxGeometry x="282.5" y="130" width="30" height="60" as="geometry" />
        </mxCell>
        <mxCell id="fFgOzb7KKSf1Zzju4vVw-5" value="Customer" style="shape=umlActor;html=1;verticalLabelPosition=bottom;verticalAlign=top;align=center;fillColor=#e1d5e7;strokeColor=#9673a6;" parent="1" vertex="1">
          <mxGeometry x="332.5" y="130" width="30" height="60" as="geometry" />
        </mxCell>
        <mxCell id="fFgOzb7KKSf1Zzju4vVw-6" value="User" style="shape=umlActor;html=1;verticalLabelPosition=bottom;verticalAlign=top;align=center;fillColor=#e1d5e7;strokeColor=#9673a6;" parent="1" vertex="1">
          <mxGeometry x="475" y="130" width="30" height="60" as="geometry" />
        </mxCell>
        <mxCell id="fFgOzb7KKSf1Zzju4vVw-7" value="Lawyer" style="shape=umlActor;html=1;verticalLabelPosition=bottom;verticalAlign=top;align=center;fillColor=#e1d5e7;strokeColor=#9673a6;" parent="1" vertex="1">
          <mxGeometry x="425" y="450" width="30" height="60" as="geometry" />
        </mxCell>
        <mxCell id="fFgOzb7KKSf1Zzju4vVw-8" value="Courier" style="shape=umlActor;html=1;verticalLabelPosition=bottom;verticalAlign=top;align=center;fillColor=#e1d5e7;strokeColor=#9673a6;" parent="1" vertex="1">
          <mxGeometry x="475" y="450" width="30" height="60" as="geometry" />
        </mxCell>
        <mxCell id="fFgOzb7KKSf1Zzju4vVw-9" value="Vendor" style="shape=umlActor;html=1;verticalLabelPosition=bottom;verticalAlign=top;align=center;fillColor=#e1d5e7;strokeColor=#9673a6;" parent="1" vertex="1">
          <mxGeometry x="475" y="290" width="30" height="60" as="geometry" />
        </mxCell>
        <mxCell id="fFgOzb7KKSf1Zzju4vVw-10" value="Customer" style="shape=umlActor;html=1;verticalLabelPosition=bottom;verticalAlign=top;align=center;fillColor=#e1d5e7;strokeColor=#9673a6;" parent="1" vertex="1">
          <mxGeometry x="525" y="290" width="30" height="60" as="geometry" />
        </mxCell>
        <mxCell id="fFgOzb7KKSf1Zzju4vVw-11" value="" style="edgeStyle=none;html=1;endArrow=block;endFill=0;endSize=12;verticalAlign=bottom;rounded=0;exitX=0.5;exitY=0;exitDx=0;exitDy=0;exitPerimeter=0;" parent="1" source="fFgOzb7KKSf1Zzju4vVw-7" edge="1">
          <mxGeometry width="160" relative="1" as="geometry">
            <mxPoint x="285" y="20" as="sourcePoint" />
            <mxPoint x="440" y="370" as="targetPoint" />
            <Array as="points" />
          </mxGeometry>
        </mxCell>
        <mxCell id="fFgOzb7KKSf1Zzju4vVw-12" value="" style="edgeStyle=none;html=1;endArrow=block;endFill=0;endSize=12;verticalAlign=bottom;rounded=0;exitX=0.5;exitY=0;exitDx=0;exitDy=0;exitPerimeter=0;" parent="1" source="fFgOzb7KKSf1Zzju4vVw-8" edge="1">
          <mxGeometry width="160" relative="1" as="geometry">
            <mxPoint x="285" y="90" as="sourcePoint" />
            <mxPoint x="440" y="370" as="targetPoint" />
            <Array as="points">
              <mxPoint x="490" y="410" />
              <mxPoint x="440" y="410" />
            </Array>
          </mxGeometry>
        </mxCell>
        <mxCell id="fFgOzb7KKSf1Zzju4vVw-14" value="" style="edgeStyle=none;html=1;endArrow=block;endFill=0;endSize=12;verticalAlign=bottom;rounded=0;exitX=0.5;exitY=0;exitDx=0;exitDy=0;exitPerimeter=0;" parent="1" source="fFgOzb7KKSf1Zzju4vVw-9" edge="1">
          <mxGeometry width="160" relative="1" as="geometry">
            <mxPoint x="489.5" y="290" as="sourcePoint" />
            <mxPoint x="490" y="210" as="targetPoint" />
            <Array as="points">
              <mxPoint x="489.5" y="250" />
            </Array>
          </mxGeometry>
        </mxCell>
        <mxCell id="fFgOzb7KKSf1Zzju4vVw-15" value="Employee" style="shape=umlActor;html=1;verticalLabelPosition=bottom;verticalAlign=top;align=center;fillColor=#e1d5e7;strokeColor=#9673a6;" parent="1" vertex="1">
          <mxGeometry x="425" y="290" width="30" height="60" as="geometry" />
        </mxCell>
        <mxCell id="fFgOzb7KKSf1Zzju4vVw-17" value="Courier" style="shape=umlActor;html=1;verticalLabelPosition=bottom;verticalAlign=top;align=center;fillColor=#e1d5e7;strokeColor=#9673a6;" parent="1" vertex="1">
          <mxGeometry x="232.5" y="130" width="30" height="60" as="geometry" />
        </mxCell>
        <mxCell id="fFgOzb7KKSf1Zzju4vVw-18" value="Manager" style="shape=umlActor;html=1;verticalLabelPosition=bottom;verticalAlign=top;align=center;fillColor=#e1d5e7;strokeColor=#9673a6;" parent="1" vertex="1">
          <mxGeometry x="370" y="450" width="30" height="60" as="geometry" />
        </mxCell>
        <mxCell id="fFgOzb7KKSf1Zzju4vVw-19" value="" style="edgeStyle=none;html=1;endArrow=block;endFill=0;endSize=12;verticalAlign=bottom;rounded=0;exitX=0.5;exitY=0;exitDx=0;exitDy=0;exitPerimeter=0;" parent="1" source="fFgOzb7KKSf1Zzju4vVw-18" edge="1">
          <mxGeometry width="160" relative="1" as="geometry">
            <mxPoint x="290" y="360" as="sourcePoint" />
            <mxPoint x="440" y="370" as="targetPoint" />
            <Array as="points">
              <mxPoint x="385" y="410" />
              <mxPoint x="440" y="410" />
            </Array>
          </mxGeometry>
        </mxCell>
        <mxCell id="fFgOzb7KKSf1Zzju4vVw-23" value="" style="edgeStyle=none;html=1;endArrow=block;endFill=0;endSize=12;verticalAlign=bottom;rounded=0;" parent="1" edge="1">
          <mxGeometry width="160" relative="1" as="geometry">
            <mxPoint x="440" y="290" as="sourcePoint" />
            <mxPoint x="490.25" y="210" as="targetPoint" />
            <Array as="points">
              <mxPoint x="440.25" y="250" />
              <mxPoint x="490.25" y="250" />
            </Array>
          </mxGeometry>
        </mxCell>
        <mxCell id="fFgOzb7KKSf1Zzju4vVw-26" value="" style="edgeStyle=none;html=1;endArrow=block;endFill=0;endSize=12;verticalAlign=bottom;rounded=0;exitX=0.5;exitY=0;exitDx=0;exitDy=0;exitPerimeter=0;" parent="1" source="fFgOzb7KKSf1Zzju4vVw-10" edge="1">
          <mxGeometry width="160" relative="1" as="geometry">
            <mxPoint x="499.5" y="300" as="sourcePoint" />
            <mxPoint x="490" y="210" as="targetPoint" />
            <Array as="points">
              <mxPoint x="540" y="250" />
              <mxPoint x="490" y="250" />
            </Array>
          </mxGeometry>
        </mxCell>
        <mxCell id="fFgOzb7KKSf1Zzju4vVw-27" value="Admin" style="shape=umlActor;html=1;verticalLabelPosition=bottom;verticalAlign=top;align=center;fillColor=#e1d5e7;strokeColor=#9673a6;" parent="1" vertex="1">
          <mxGeometry x="370" y="290" width="30" height="60" as="geometry" />
        </mxCell>
        <mxCell id="fFgOzb7KKSf1Zzju4vVw-28" value="" style="edgeStyle=none;html=1;endArrow=block;endFill=0;endSize=12;verticalAlign=bottom;rounded=0;exitX=0.5;exitY=0;exitDx=0;exitDy=0;exitPerimeter=0;" parent="1" source="fFgOzb7KKSf1Zzju4vVw-27" edge="1">
          <mxGeometry width="160" relative="1" as="geometry">
            <mxPoint x="440" y="290" as="sourcePoint" />
            <mxPoint x="490.5" y="210" as="targetPoint" />
            <Array as="points">
              <mxPoint x="385" y="250" />
              <mxPoint x="490.5" y="250" />
            </Array>
          </mxGeometry>
        </mxCell>
      </root>
    </mxGraphModel>
  </diagram>
  <diagram name="Session Management" id="wSBQna6ebIGf9pXlOk57">
    <mxGraphModel dx="991" dy="760" grid="1" gridSize="10" guides="1" tooltips="1" connect="1" arrows="1" fold="1" page="1" pageScale="1" pageWidth="850" pageHeight="1100" math="0" shadow="0">
      <root>
        <mxCell id="0" />
        <mxCell id="1" parent="0" />
        <mxCell id="7MRk4WgwkrvHjq573EaE-1" value="Session Management" style="shape=note;html=1;verticalAlign=top;fontStyle=1;whiteSpace=wrap;align=center;fillColor=#f5f5f5;fontColor=#333333;strokeColor=#666666;size=0;spacingLeft=5;labelBackgroundColor=#f5f5f5;" parent="1" vertex="1">
          <mxGeometry x="122" y="40" width="708" height="970" as="geometry" />
        </mxCell>
        <mxCell id="7MRk4WgwkrvHjq573EaE-4" value="Register" style="ellipse;whiteSpace=wrap;html=1;fillColor=#dae8fc;strokeColor=#6c8ebf;strokeWidth=2;" parent="1" vertex="1">
          <mxGeometry x="174.5" y="390" width="126" height="70" as="geometry" />
        </mxCell>
        <mxCell id="7MRk4WgwkrvHjq573EaE-5" value="" style="edgeStyle=none;html=1;endArrow=none;verticalAlign=bottom;rounded=0;entryX=0;entryY=0.5;entryDx=0;entryDy=0;exitX=1;exitY=0.3333333333333333;exitDx=0;exitDy=0;exitPerimeter=0;" parent="1" source="7MRk4WgwkrvHjq573EaE-2" target="7MRk4WgwkrvHjq573EaE-12" edge="1">
          <mxGeometry width="160" relative="1" as="geometry">
            <mxPoint x="-175.00000000000023" y="615" as="sourcePoint" />
            <mxPoint x="4.999999999997954" y="695" as="targetPoint" />
          </mxGeometry>
        </mxCell>
        <mxCell id="7MRk4WgwkrvHjq573EaE-6" value="Reset Password" style="ellipse;whiteSpace=wrap;html=1;fillColor=#dae8fc;strokeColor=#6c8ebf;strokeWidth=2;" parent="1" vertex="1">
          <mxGeometry x="174.5" y="586" width="128" height="71.11" as="geometry" />
        </mxCell>
        <mxCell id="7MRk4WgwkrvHjq573EaE-8" value="" style="edgeStyle=none;html=1;endArrow=none;verticalAlign=bottom;rounded=0;exitX=1;exitY=0.3333333333333333;exitDx=0;exitDy=0;exitPerimeter=0;entryX=0;entryY=0.5;entryDx=0;entryDy=0;" parent="1" source="7MRk4WgwkrvHjq573EaE-2" target="7MRk4WgwkrvHjq573EaE-23" edge="1">
          <mxGeometry width="160" relative="1" as="geometry">
            <mxPoint x="-185" y="630" as="sourcePoint" />
            <mxPoint x="237" y="500" as="targetPoint" />
          </mxGeometry>
        </mxCell>
        <mxCell id="7MRk4WgwkrvHjq573EaE-10" value="Create Session" style="ellipse;whiteSpace=wrap;html=1;fillColor=#dae8fc;strokeColor=#6c8ebf;strokeWidth=1;" parent="1" vertex="1">
          <mxGeometry x="670" y="493" width="126" height="70" as="geometry" />
        </mxCell>
        <mxCell id="7MRk4WgwkrvHjq573EaE-11" value="Destroy Session" style="ellipse;whiteSpace=wrap;html=1;fillColor=#dae8fc;strokeColor=#6c8ebf;" parent="1" vertex="1">
          <mxGeometry x="415.5" y="910" width="126" height="70" as="geometry" />
        </mxCell>
        <mxCell id="7MRk4WgwkrvHjq573EaE-12" value="Logout" style="ellipse;whiteSpace=wrap;html=1;fillColor=#dae8fc;strokeColor=#6c8ebf;strokeWidth=2;" parent="1" vertex="1">
          <mxGeometry x="174" y="910" width="126" height="70" as="geometry" />
        </mxCell>
        <mxCell id="7MRk4WgwkrvHjq573EaE-13" value="&amp;lt;&amp;lt;include&amp;gt;&amp;gt;" style="edgeStyle=none;html=1;endArrow=open;verticalAlign=bottom;dashed=1;labelBackgroundColor=#F5F5F5;rounded=0;entryX=0;entryY=0.5;entryDx=0;entryDy=0;exitX=1;exitY=0.5;exitDx=0;exitDy=0;" parent="1" source="7MRk4WgwkrvHjq573EaE-12" target="7MRk4WgwkrvHjq573EaE-11" edge="1">
          <mxGeometry x="0.0075" width="160" relative="1" as="geometry">
            <mxPoint x="284.8800000000001" y="534" as="sourcePoint" />
            <mxPoint x="452.00000000000136" y="625" as="targetPoint" />
            <mxPoint as="offset" />
          </mxGeometry>
        </mxCell>
        <mxCell id="7MRk4WgwkrvHjq573EaE-14" value="" style="edgeStyle=none;html=1;endArrow=none;verticalAlign=bottom;rounded=0;entryX=0;entryY=0.5;entryDx=0;entryDy=0;exitX=1;exitY=0.3333333333333333;exitDx=0;exitDy=0;exitPerimeter=0;" parent="1" source="7MRk4WgwkrvHjq573EaE-2" target="7MRk4WgwkrvHjq573EaE-4" edge="1">
          <mxGeometry width="160" relative="1" as="geometry">
            <mxPoint x="-5" y="400" as="sourcePoint" />
            <mxPoint x="37.94" y="657" as="targetPoint" />
          </mxGeometry>
        </mxCell>
        <mxCell id="7MRk4WgwkrvHjq573EaE-16" value="&amp;lt;&amp;lt;include&amp;gt;&amp;gt;" style="edgeStyle=none;html=1;endArrow=open;verticalAlign=bottom;dashed=1;labelBackgroundColor=#F5F5F5;rounded=0;exitX=1;exitY=0.5;exitDx=0;exitDy=0;entryX=0;entryY=0.5;entryDx=0;entryDy=0;" parent="1" source="7MRk4WgwkrvHjq573EaE-23" target="7MRk4WgwkrvHjq573EaE-18" edge="1">
          <mxGeometry x="0.0075" width="160" relative="1" as="geometry">
            <mxPoint x="483.0000000000009" y="537.5" as="sourcePoint" />
            <mxPoint x="567" y="572.5" as="targetPoint" />
            <mxPoint as="offset" />
          </mxGeometry>
        </mxCell>
        <mxCell id="7MRk4WgwkrvHjq573EaE-17" value="Login with Session" style="ellipse;whiteSpace=wrap;html=1;fillColor=#dae8fc;strokeColor=#6c8ebf;" parent="1" vertex="1">
          <mxGeometry x="430" y="121.54999999999995" width="126" height="70" as="geometry" />
        </mxCell>
        <mxCell id="7MRk4WgwkrvHjq573EaE-18" value="Authenticate User&lt;br&gt;Account" style="ellipse;whiteSpace=wrap;html=1;fillColor=#dae8fc;strokeColor=#6c8ebf;" parent="1" vertex="1">
          <mxGeometry x="429" y="493" width="126" height="70" as="geometry" />
        </mxCell>
        <mxCell id="7MRk4WgwkrvHjq573EaE-19" value="&amp;lt;&amp;lt;include&amp;gt;&amp;gt;" style="edgeStyle=none;html=1;endArrow=open;verticalAlign=bottom;dashed=1;labelBackgroundColor=#F5F5F5;rounded=0;entryX=0;entryY=0.5;entryDx=0;entryDy=0;exitX=1;exitY=0.5;exitDx=0;exitDy=0;" parent="1" source="7MRk4WgwkrvHjq573EaE-18" target="7MRk4WgwkrvHjq573EaE-10" edge="1">
          <mxGeometry x="0.0104" width="160" relative="1" as="geometry">
            <mxPoint x="570" y="515" as="sourcePoint" />
            <mxPoint x="684" y="510" as="targetPoint" />
            <mxPoint as="offset" />
          </mxGeometry>
        </mxCell>
        <mxCell id="7MRk4WgwkrvHjq573EaE-20" value="&amp;lt;&amp;lt;include&amp;gt;&amp;gt;" style="edgeStyle=none;html=1;endArrow=open;verticalAlign=bottom;dashed=1;labelBackgroundColor=#F5F5F5;rounded=0;entryX=0;entryY=0.5;entryDx=0;entryDy=0;exitX=1;exitY=0.5;exitDx=0;exitDy=0;" parent="1" source="7MRk4WgwkrvHjq573EaE-4" target="7MRk4WgwkrvHjq573EaE-39" edge="1">
          <mxGeometry x="0.0734" width="160" relative="1" as="geometry">
            <mxPoint x="389.81999999999994" y="559.65" as="sourcePoint" />
            <mxPoint x="603.8199999999999" y="649.65" as="targetPoint" />
            <mxPoint x="-1" as="offset" />
          </mxGeometry>
        </mxCell>
        <mxCell id="7MRk4WgwkrvHjq573EaE-21" value="Send Reset Link&amp;nbsp;&lt;br&gt;via email&amp;nbsp;" style="ellipse;whiteSpace=wrap;html=1;fillColor=#dae8fc;strokeColor=#6c8ebf;" parent="1" vertex="1">
          <mxGeometry x="431" y="586" width="128" height="71.11" as="geometry" />
        </mxCell>
        <mxCell id="7MRk4WgwkrvHjq573EaE-22" value="&amp;lt;&amp;lt;include&amp;gt;&amp;gt;" style="edgeStyle=none;html=1;endArrow=open;verticalAlign=bottom;dashed=1;labelBackgroundColor=#F5F5F5;rounded=0;entryX=0;entryY=0.5;entryDx=0;entryDy=0;exitX=1;exitY=0.5;exitDx=0;exitDy=0;" parent="1" source="7MRk4WgwkrvHjq573EaE-6" target="7MRk4WgwkrvHjq573EaE-21" edge="1">
          <mxGeometry x="0.2062" width="160" relative="1" as="geometry">
            <mxPoint x="511.5" y="316" as="sourcePoint" />
            <mxPoint x="734.5" y="376" as="targetPoint" />
            <mxPoint as="offset" />
          </mxGeometry>
        </mxCell>
        <mxCell id="7MRk4WgwkrvHjq573EaE-23" value="Login with Password" style="ellipse;whiteSpace=wrap;html=1;fillColor=#dae8fc;strokeColor=#6c8ebf;strokeWidth=2;" parent="1" vertex="1">
          <mxGeometry x="174" y="493" width="126" height="70" as="geometry" />
        </mxCell>
        <mxCell id="7MRk4WgwkrvHjq573EaE-24" value="Validate Session" style="ellipse;whiteSpace=wrap;html=1;fillColor=#dae8fc;strokeColor=#6c8ebf;" parent="1" vertex="1">
          <mxGeometry x="672" y="121.54999999999995" width="126" height="70" as="geometry" />
        </mxCell>
        <mxCell id="7MRk4WgwkrvHjq573EaE-25" value="&amp;lt;&amp;lt;include&amp;gt;&amp;gt;" style="edgeStyle=none;html=1;endArrow=open;verticalAlign=bottom;dashed=1;labelBackgroundColor=#F5F5F5;rounded=0;exitX=1;exitY=0.5;exitDx=0;exitDy=0;entryX=0;entryY=0.5;entryDx=0;entryDy=0;" parent="1" source="7MRk4WgwkrvHjq573EaE-17" target="7MRk4WgwkrvHjq573EaE-24" edge="1">
          <mxGeometry x="0.0075" width="160" relative="1" as="geometry">
            <mxPoint x="632" y="450" as="sourcePoint" />
            <mxPoint x="712" y="480" as="targetPoint" />
            <mxPoint as="offset" />
          </mxGeometry>
        </mxCell>
        <mxCell id="7MRk4WgwkrvHjq573EaE-27" style="rounded=0;orthogonalLoop=1;jettySize=auto;html=1;entryX=0.032;entryY=0.27;entryDx=0;entryDy=0;entryPerimeter=0;" parent="1" source="7MRk4WgwkrvHjq573EaE-28" target="7MRk4WgwkrvHjq573EaE-17" edge="1">
          <mxGeometry relative="1" as="geometry" />
        </mxCell>
        <mxCell id="7MRk4WgwkrvHjq573EaE-28" value="If the user has logged in before and the session has not expired" style="shape=note;strokeWidth=2;fontSize=14;size=20;whiteSpace=wrap;html=1;fillColor=#fff2cc;strokeColor=#d6b656;fontColor=#666600;" parent="1" vertex="1">
          <mxGeometry x="152" y="70" width="242" height="80" as="geometry" />
        </mxCell>
        <mxCell id="7MRk4WgwkrvHjq573EaE-29" value="Enter New Password" style="ellipse;whiteSpace=wrap;html=1;fillColor=#dae8fc;strokeColor=#6c8ebf;strokeWidth=2;" parent="1" vertex="1">
          <mxGeometry x="174.5" y="680" width="128" height="71.11" as="geometry" />
        </mxCell>
        <mxCell id="7MRk4WgwkrvHjq573EaE-30" value="&amp;lt;&amp;lt;include&amp;gt;&amp;gt;" style="edgeStyle=none;html=1;endArrow=open;verticalAlign=bottom;dashed=1;labelBackgroundColor=#F5F5F5;rounded=0;entryX=0.5;entryY=1;entryDx=0;entryDy=0;exitX=0.5;exitY=0;exitDx=0;exitDy=0;" parent="1" source="3uGGdlX424F1TVX14pZe-8" target="7MRk4WgwkrvHjq573EaE-29" edge="1">
          <mxGeometry x="-0.5903" y="-1" width="160" relative="1" as="geometry">
            <mxPoint x="490" y="700" as="sourcePoint" />
            <mxPoint x="497.5" y="589.56" as="targetPoint" />
            <mxPoint as="offset" />
          </mxGeometry>
        </mxCell>
        <mxCell id="7MRk4WgwkrvHjq573EaE-31" value="" style="edgeStyle=none;html=1;endArrow=none;verticalAlign=bottom;rounded=0;entryX=0;entryY=0.5;entryDx=0;entryDy=0;exitX=1;exitY=0.3333333333333333;exitDx=0;exitDy=0;exitPerimeter=0;" parent="1" source="7MRk4WgwkrvHjq573EaE-2" target="7MRk4WgwkrvHjq573EaE-29" edge="1">
          <mxGeometry width="160" relative="1" as="geometry">
            <mxPoint x="25" y="560" as="sourcePoint" />
            <mxPoint x="278" y="740" as="targetPoint" />
          </mxGeometry>
        </mxCell>
        <mxCell id="7MRk4WgwkrvHjq573EaE-32" value="" style="edgeStyle=none;html=1;endArrow=none;verticalAlign=bottom;rounded=0;entryX=0;entryY=0.5;entryDx=0;entryDy=0;exitX=1;exitY=0.3333333333333333;exitDx=0;exitDy=0;exitPerimeter=0;" parent="1" source="7MRk4WgwkrvHjq573EaE-2" target="7MRk4WgwkrvHjq573EaE-6" edge="1">
          <mxGeometry width="160" relative="1" as="geometry">
            <mxPoint x="45" y="600" as="sourcePoint" />
            <mxPoint x="260" y="568.44" as="targetPoint" />
          </mxGeometry>
        </mxCell>
        <mxCell id="7MRk4WgwkrvHjq573EaE-34" value="&amp;lt;&amp;lt;include&amp;gt;&amp;gt;" style="edgeStyle=none;html=1;endArrow=open;verticalAlign=bottom;dashed=1;labelBackgroundColor=#F5F5F5;rounded=0;entryX=1;entryY=1;entryDx=0;entryDy=0;exitX=1;exitY=0;exitDx=0;exitDy=0;curved=1;" parent="1" source="7MRk4WgwkrvHjq573EaE-29" target="7MRk4WgwkrvHjq573EaE-23" edge="1">
          <mxGeometry x="-0.511" y="-7" width="160" relative="1" as="geometry">
            <mxPoint x="486" y="635.61" as="sourcePoint" />
            <mxPoint x="310" y="702.6100000000001" as="targetPoint" />
            <Array as="points">
              <mxPoint x="320" y="676" />
              <mxPoint x="340" y="626" />
              <mxPoint x="320" y="566" />
            </Array>
            <mxPoint y="-1" as="offset" />
          </mxGeometry>
        </mxCell>
        <mxCell id="7MRk4WgwkrvHjq573EaE-39" value="Validate User&lt;br&gt;Information" style="ellipse;whiteSpace=wrap;html=1;fillColor=#dae8fc;strokeColor=#6c8ebf;" parent="1" vertex="1">
          <mxGeometry x="430" y="390" width="126" height="70" as="geometry" />
        </mxCell>
        <mxCell id="7MRk4WgwkrvHjq573EaE-40" value="&amp;lt;&amp;lt;include&amp;gt;&amp;gt;" style="edgeStyle=orthogonalEdgeStyle;html=1;endArrow=open;verticalAlign=bottom;dashed=1;labelBackgroundColor=#F5F5F5;rounded=0;entryX=1;entryY=0.5;entryDx=0;entryDy=0;exitX=1;exitY=0.5;exitDx=0;exitDy=0;curved=1;" parent="1" source="7MRk4WgwkrvHjq573EaE-39" target="7MRk4WgwkrvHjq573EaE-41" edge="1">
          <mxGeometry x="0.0086" y="-10" width="160" relative="1" as="geometry">
            <mxPoint x="580" y="357.77" as="sourcePoint" />
            <mxPoint x="682" y="403.77" as="targetPoint" />
            <mxPoint as="offset" />
            <Array as="points">
              <mxPoint x="592" y="425" />
              <mxPoint x="592" y="334" />
            </Array>
          </mxGeometry>
        </mxCell>
        <mxCell id="7MRk4WgwkrvHjq573EaE-41" value="Send Verify Link&amp;nbsp;&lt;br&gt;via email&amp;nbsp;" style="ellipse;whiteSpace=wrap;html=1;fillColor=#dae8fc;strokeColor=#6c8ebf;" parent="1" vertex="1">
          <mxGeometry x="430" y="298.89" width="128" height="71.11" as="geometry" />
        </mxCell>
        <mxCell id="7MRk4WgwkrvHjq573EaE-42" value="Create Account" style="ellipse;whiteSpace=wrap;html=1;fillColor=#dae8fc;strokeColor=#6c8ebf;" parent="1" vertex="1">
          <mxGeometry x="429" y="210.00000000000006" width="128" height="71.11" as="geometry" />
        </mxCell>
        <mxCell id="7MRk4WgwkrvHjq573EaE-2" value="User" style="shape=umlActor;html=1;verticalLabelPosition=bottom;verticalAlign=top;align=center;fillColor=#e1d5e7;strokeColor=#9673a6;" parent="1" vertex="1">
          <mxGeometry x="40" y="591.55" width="30" height="60" as="geometry" />
        </mxCell>
        <mxCell id="3uGGdlX424F1TVX14pZe-1" value="Open Web-app" style="ellipse;whiteSpace=wrap;html=1;fillColor=#dae8fc;strokeColor=#6c8ebf;strokeWidth=2;" vertex="1" parent="1">
          <mxGeometry x="176" y="200" width="126" height="70" as="geometry" />
        </mxCell>
        <mxCell id="3uGGdlX424F1TVX14pZe-2" value="" style="edgeStyle=none;html=1;endArrow=none;verticalAlign=bottom;rounded=0;entryX=0;entryY=0.5;entryDx=0;entryDy=0;exitX=1;exitY=0.3333333333333333;exitDx=0;exitDy=0;exitPerimeter=0;" edge="1" parent="1" source="7MRk4WgwkrvHjq573EaE-2" target="3uGGdlX424F1TVX14pZe-1">
          <mxGeometry width="160" relative="1" as="geometry">
            <mxPoint x="62" y="442.22" as="sourcePoint" />
            <mxPoint x="156" y="255.22000000000003" as="targetPoint" />
          </mxGeometry>
        </mxCell>
        <mxCell id="3uGGdlX424F1TVX14pZe-3" value="&amp;lt;&amp;lt;include&amp;gt;&amp;gt;" style="edgeStyle=none;html=1;endArrow=open;verticalAlign=bottom;dashed=1;labelBackgroundColor=#F5F5F5;rounded=0;entryX=0;entryY=0.5;entryDx=0;entryDy=0;exitX=1;exitY=0.5;exitDx=0;exitDy=0;" edge="1" parent="1" source="3uGGdlX424F1TVX14pZe-1" target="7MRk4WgwkrvHjq573EaE-17">
          <mxGeometry x="-0.0253" y="-5" width="160" relative="1" as="geometry">
            <mxPoint x="313" y="345" as="sourcePoint" />
            <mxPoint x="432" y="255" as="targetPoint" />
            <mxPoint as="offset" />
          </mxGeometry>
        </mxCell>
        <mxCell id="3uGGdlX424F1TVX14pZe-4" value="Follow Verify Link" style="ellipse;whiteSpace=wrap;html=1;fillColor=#dae8fc;strokeColor=#6c8ebf;" vertex="1" parent="1">
          <mxGeometry x="176.5" y="298.88999999999993" width="126" height="70" as="geometry" />
        </mxCell>
        <mxCell id="3uGGdlX424F1TVX14pZe-5" value="&amp;lt;&amp;lt;include&amp;gt;&amp;gt;" style="edgeStyle=none;html=1;endArrow=open;verticalAlign=bottom;dashed=1;labelBackgroundColor=#F5F5F5;rounded=0;entryX=1;entryY=0.5;entryDx=0;entryDy=0;exitX=0;exitY=0.5;exitDx=0;exitDy=0;" edge="1" parent="1" source="7MRk4WgwkrvHjq573EaE-41" target="3uGGdlX424F1TVX14pZe-4">
          <mxGeometry x="-0.0902" width="160" relative="1" as="geometry">
            <mxPoint x="566" y="435" as="sourcePoint" />
            <mxPoint x="761" y="436" as="targetPoint" />
            <mxPoint x="-1" as="offset" />
          </mxGeometry>
        </mxCell>
        <mxCell id="3uGGdlX424F1TVX14pZe-6" value="&amp;lt;&amp;lt;include&amp;gt;&amp;gt;" style="edgeStyle=none;html=1;endArrow=open;verticalAlign=bottom;dashed=1;labelBackgroundColor=#F5F5F5;rounded=0;entryX=0;entryY=0.5;entryDx=0;entryDy=0;exitX=0.985;exitY=0.379;exitDx=0;exitDy=0;exitPerimeter=0;" edge="1" parent="1" source="3uGGdlX424F1TVX14pZe-4" target="7MRk4WgwkrvHjq573EaE-42">
          <mxGeometry x="-0.0253" y="-5" width="160" relative="1" as="geometry">
            <mxPoint x="825" y="400" as="sourcePoint" />
            <mxPoint x="727" y="340" as="targetPoint" />
            <mxPoint as="offset" />
          </mxGeometry>
        </mxCell>
        <mxCell id="3uGGdlX424F1TVX14pZe-8" value="Follow Reset Link" style="ellipse;whiteSpace=wrap;html=1;fillColor=#dae8fc;strokeColor=#6c8ebf;" vertex="1" parent="1">
          <mxGeometry x="174.5" y="800" width="126" height="70" as="geometry" />
        </mxCell>
        <mxCell id="3uGGdlX424F1TVX14pZe-9" value="&amp;lt;&amp;lt;include&amp;gt;&amp;gt;" style="edgeStyle=none;html=1;endArrow=open;verticalAlign=bottom;dashed=1;labelBackgroundColor=#F5F5F5;rounded=0;entryX=1;entryY=0.5;entryDx=0;entryDy=0;exitX=0.5;exitY=1;exitDx=0;exitDy=0;" edge="1" parent="1" source="7MRk4WgwkrvHjq573EaE-21" target="3uGGdlX424F1TVX14pZe-8">
          <mxGeometry x="0.1342" y="-6" width="160" relative="1" as="geometry">
            <mxPoint x="828" y="671.11" as="sourcePoint" />
            <mxPoint x="510" y="672.11" as="targetPoint" />
            <mxPoint as="offset" />
          </mxGeometry>
        </mxCell>
        <mxCell id="3uGGdlX424F1TVX14pZe-10" value="" style="edgeStyle=none;html=1;endArrow=none;verticalAlign=bottom;rounded=0;entryX=0;entryY=0.5;entryDx=0;entryDy=0;exitX=1;exitY=0.3333333333333333;exitDx=0;exitDy=0;exitPerimeter=0;" edge="1" parent="1" source="7MRk4WgwkrvHjq573EaE-2" target="3uGGdlX424F1TVX14pZe-8">
          <mxGeometry width="160" relative="1" as="geometry">
            <mxPoint x="90" y="622" as="sourcePoint" />
            <mxPoint x="184" y="955" as="targetPoint" />
          </mxGeometry>
        </mxCell>
        <mxCell id="3uGGdlX424F1TVX14pZe-11" value="" style="edgeStyle=none;html=1;endArrow=none;verticalAlign=bottom;rounded=0;entryX=0;entryY=0.5;entryDx=0;entryDy=0;exitX=1;exitY=0.3333333333333333;exitDx=0;exitDy=0;exitPerimeter=0;" edge="1" parent="1" source="7MRk4WgwkrvHjq573EaE-2" target="3uGGdlX424F1TVX14pZe-4">
          <mxGeometry width="160" relative="1" as="geometry">
            <mxPoint x="90" y="622" as="sourcePoint" />
            <mxPoint x="184" y="435" as="targetPoint" />
          </mxGeometry>
        </mxCell>
      </root>
    </mxGraphModel>
  </diagram>
  <diagram id="GcJ9BDQl7EpRQGFHbeQP" name="Main-1">
    <mxGraphModel dx="1133" dy="869" grid="1" gridSize="10" guides="1" tooltips="1" connect="1" arrows="1" fold="1" page="1" pageScale="1" pageWidth="850" pageHeight="1100" math="0" shadow="0">
      <root>
        <mxCell id="0" />
        <mxCell id="1" parent="0" />
        <mxCell id="mJw2rQprPUVXGZsYBFY_-1" value="Main-1" style="shape=note;html=1;verticalAlign=top;fontStyle=1;whiteSpace=wrap;align=center;fillColor=#f5f5f5;fontColor=#333333;strokeColor=#666666;size=0;spacingLeft=5;labelBackgroundColor=#f5f5f5;" parent="1" vertex="1">
          <mxGeometry x="110" y="40" width="620" height="870" as="geometry" />
        </mxCell>
        <mxCell id="mJw2rQprPUVXGZsYBFY_-2" value="Admin" style="shape=umlActor;html=1;verticalLabelPosition=bottom;verticalAlign=top;align=center;fillColor=#e1d5e7;strokeColor=#9673a6;" parent="1" vertex="1">
          <mxGeometry x="40" y="245" width="30" height="60" as="geometry" />
        </mxCell>
        <mxCell id="mJw2rQprPUVXGZsYBFY_-3" value="Registrer Employee" style="ellipse;whiteSpace=wrap;html=1;fillColor=#dae8fc;strokeColor=#6c8ebf;strokeWidth=2;" parent="1" vertex="1">
          <mxGeometry x="150" y="100" width="140" height="70" as="geometry" />
        </mxCell>
        <mxCell id="mJw2rQprPUVXGZsYBFY_-4" value="Fire Employee" style="ellipse;whiteSpace=wrap;html=1;fillColor=#dae8fc;strokeColor=#6c8ebf;strokeWidth=2;" parent="1" vertex="1">
          <mxGeometry x="150" y="190" width="140" height="70" as="geometry" />
        </mxCell>
        <mxCell id="mJw2rQprPUVXGZsYBFY_-5" value="Set Employee Salary" style="ellipse;whiteSpace=wrap;html=1;fillColor=#dae8fc;strokeColor=#6c8ebf;strokeWidth=2;" parent="1" vertex="1">
          <mxGeometry x="150" y="280" width="140" height="70" as="geometry" />
        </mxCell>
        <mxCell id="mJw2rQprPUVXGZsYBFY_-6" value="Backup Data" style="ellipse;whiteSpace=wrap;html=1;fillColor=#dae8fc;strokeColor=#6c8ebf;strokeWidth=2;" parent="1" vertex="1">
          <mxGeometry x="150" y="370" width="140" height="70" as="geometry" />
        </mxCell>
        <mxCell id="mJw2rQprPUVXGZsYBFY_-7" value="" style="edgeStyle=none;html=1;endArrow=none;verticalAlign=bottom;rounded=0;entryX=0;entryY=0.5;entryDx=0;entryDy=0;exitX=1;exitY=0.3333333333333333;exitDx=0;exitDy=0;exitPerimeter=0;" parent="1" source="mJw2rQprPUVXGZsYBFY_-2" target="mJw2rQprPUVXGZsYBFY_-6" edge="1">
          <mxGeometry width="160" relative="1" as="geometry">
            <mxPoint x="-70" y="200" as="sourcePoint" />
            <mxPoint x="90" y="200" as="targetPoint" />
          </mxGeometry>
        </mxCell>
        <mxCell id="mJw2rQprPUVXGZsYBFY_-8" value="" style="edgeStyle=none;html=1;endArrow=none;verticalAlign=bottom;rounded=0;entryX=0;entryY=0.5;entryDx=0;entryDy=0;exitX=1;exitY=0.3333333333333333;exitDx=0;exitDy=0;exitPerimeter=0;" parent="1" source="mJw2rQprPUVXGZsYBFY_-2" target="mJw2rQprPUVXGZsYBFY_-5" edge="1">
          <mxGeometry width="160" relative="1" as="geometry">
            <mxPoint x="70" y="260" as="sourcePoint" />
            <mxPoint x="90" y="170" as="targetPoint" />
          </mxGeometry>
        </mxCell>
        <mxCell id="mJw2rQprPUVXGZsYBFY_-9" value="" style="edgeStyle=none;html=1;endArrow=none;verticalAlign=bottom;rounded=0;entryX=0;entryY=0.5;entryDx=0;entryDy=0;exitX=1;exitY=0.3333333333333333;exitDx=0;exitDy=0;exitPerimeter=0;" parent="1" source="mJw2rQprPUVXGZsYBFY_-2" target="mJw2rQprPUVXGZsYBFY_-4" edge="1">
          <mxGeometry width="160" relative="1" as="geometry">
            <mxPoint x="60" y="260" as="sourcePoint" />
            <mxPoint x="90" y="168.56999999999994" as="targetPoint" />
          </mxGeometry>
        </mxCell>
        <mxCell id="mJw2rQprPUVXGZsYBFY_-10" value="" style="edgeStyle=none;html=1;endArrow=none;verticalAlign=bottom;rounded=0;entryX=0;entryY=0.5;entryDx=0;entryDy=0;exitX=1;exitY=0.3333333333333333;exitDx=0;exitDy=0;exitPerimeter=0;" parent="1" source="mJw2rQprPUVXGZsYBFY_-2" target="mJw2rQprPUVXGZsYBFY_-3" edge="1">
          <mxGeometry width="160" relative="1" as="geometry">
            <mxPoint x="-70" y="144.27999999999997" as="sourcePoint" />
            <mxPoint x="90" y="144.27999999999997" as="targetPoint" />
          </mxGeometry>
        </mxCell>
        <mxCell id="mJw2rQprPUVXGZsYBFY_-11" value="Hire Courier" style="ellipse;whiteSpace=wrap;html=1;fillColor=#dae8fc;strokeColor=#6c8ebf;strokeWidth=2;" parent="1" vertex="1">
          <mxGeometry x="150" y="550" width="140" height="70" as="geometry" />
        </mxCell>
        <mxCell id="mJw2rQprPUVXGZsYBFY_-12" value="Manager" style="shape=umlActor;html=1;verticalLabelPosition=bottom;verticalAlign=top;align=center;fillColor=#e1d5e7;strokeColor=#9673a6;" parent="1" vertex="1">
          <mxGeometry x="40" y="650" width="30" height="60" as="geometry" />
        </mxCell>
        <mxCell id="mJw2rQprPUVXGZsYBFY_-13" value="Assign Delivery Task" style="ellipse;whiteSpace=wrap;html=1;fillColor=#dae8fc;strokeColor=#6c8ebf;strokeWidth=2;" parent="1" vertex="1">
          <mxGeometry x="150" y="730" width="140" height="70" as="geometry" />
        </mxCell>
        <mxCell id="mJw2rQprPUVXGZsYBFY_-14" value="Courier" style="shape=umlActor;html=1;verticalLabelPosition=bottom;verticalAlign=top;align=center;fillColor=#e1d5e7;strokeColor=#9673a6;" parent="1" vertex="1">
          <mxGeometry x="760" y="740" width="30" height="60" as="geometry" />
        </mxCell>
        <mxCell id="mJw2rQprPUVXGZsYBFY_-15" value="Fire Courier" style="ellipse;whiteSpace=wrap;html=1;fillColor=#dae8fc;strokeColor=#6c8ebf;strokeWidth=2;" parent="1" vertex="1">
          <mxGeometry x="150" y="640" width="140" height="70" as="geometry" />
        </mxCell>
        <mxCell id="mJw2rQprPUVXGZsYBFY_-16" value="" style="edgeStyle=none;html=1;endArrow=none;verticalAlign=bottom;rounded=0;entryX=0;entryY=0.5;entryDx=0;entryDy=0;exitX=1;exitY=0.3333333333333333;exitDx=0;exitDy=0;exitPerimeter=0;" parent="1" source="mJw2rQprPUVXGZsYBFY_-12" target="mJw2rQprPUVXGZsYBFY_-11" edge="1">
          <mxGeometry width="160" relative="1" as="geometry">
            <mxPoint y="360" as="sourcePoint" />
            <mxPoint x="90" y="505" as="targetPoint" />
          </mxGeometry>
        </mxCell>
        <mxCell id="mJw2rQprPUVXGZsYBFY_-17" value="" style="edgeStyle=none;html=1;endArrow=none;verticalAlign=bottom;rounded=0;entryX=0;entryY=0.5;entryDx=0;entryDy=0;exitX=1;exitY=0.3333333333333333;exitDx=0;exitDy=0;exitPerimeter=0;" parent="1" source="mJw2rQprPUVXGZsYBFY_-12" target="mJw2rQprPUVXGZsYBFY_-15" edge="1">
          <mxGeometry width="160" relative="1" as="geometry">
            <mxPoint x="-80" y="670" as="sourcePoint" />
            <mxPoint x="80" y="670" as="targetPoint" />
          </mxGeometry>
        </mxCell>
        <mxCell id="mJw2rQprPUVXGZsYBFY_-18" value="" style="edgeStyle=none;html=1;endArrow=none;verticalAlign=bottom;rounded=0;entryX=0;entryY=0.5;entryDx=0;entryDy=0;exitX=1;exitY=0.3333333333333333;exitDx=0;exitDy=0;exitPerimeter=0;" parent="1" source="mJw2rQprPUVXGZsYBFY_-12" target="mJw2rQprPUVXGZsYBFY_-13" edge="1">
          <mxGeometry width="160" relative="1" as="geometry">
            <mxPoint x="10" y="690" as="sourcePoint" />
            <mxPoint x="100" y="695" as="targetPoint" />
          </mxGeometry>
        </mxCell>
        <mxCell id="mJw2rQprPUVXGZsYBFY_-19" value="Handle Failing &lt;br&gt;Delivery Cases &amp;amp;&lt;br&gt;Conflicts" style="ellipse;whiteSpace=wrap;html=1;fillColor=#dae8fc;strokeColor=#6c8ebf;strokeWidth=2;" parent="1" vertex="1">
          <mxGeometry x="150" y="820" width="140" height="70" as="geometry" />
        </mxCell>
        <mxCell id="mJw2rQprPUVXGZsYBFY_-20" value="" style="edgeStyle=none;html=1;endArrow=none;verticalAlign=bottom;rounded=0;entryX=0;entryY=0.5;entryDx=0;entryDy=0;exitX=1;exitY=0.3333333333333333;exitDx=0;exitDy=0;exitPerimeter=0;" parent="1" source="mJw2rQprPUVXGZsYBFY_-12" target="mJw2rQprPUVXGZsYBFY_-19" edge="1">
          <mxGeometry width="160" relative="1" as="geometry">
            <mxPoint x="60" y="580" as="sourcePoint" />
            <mxPoint x="150" y="755" as="targetPoint" />
          </mxGeometry>
        </mxCell>
        <mxCell id="mJw2rQprPUVXGZsYBFY_-21" value="Contact Lawyer" style="ellipse;whiteSpace=wrap;html=1;fillColor=#dae8fc;strokeColor=#6c8ebf;" parent="1" vertex="1">
          <mxGeometry x="560" y="820" width="140" height="70" as="geometry" />
        </mxCell>
        <mxCell id="mJw2rQprPUVXGZsYBFY_-22" value="Salvage Items from&lt;br&gt;Failing Courier" style="ellipse;whiteSpace=wrap;html=1;fillColor=#dae8fc;strokeColor=#6c8ebf;" parent="1" vertex="1">
          <mxGeometry x="560" y="730" width="140" height="70" as="geometry" />
        </mxCell>
        <mxCell id="mJw2rQprPUVXGZsYBFY_-23" value="" style="edgeStyle=none;html=1;endArrow=none;verticalAlign=bottom;rounded=0;exitX=1;exitY=0.5;exitDx=0;exitDy=0;entryX=0;entryY=0.3333333333333333;entryDx=0;entryDy=0;entryPerimeter=0;" parent="1" source="mJw2rQprPUVXGZsYBFY_-22" target="mJw2rQprPUVXGZsYBFY_-14" edge="1">
          <mxGeometry width="160" relative="1" as="geometry">
            <mxPoint x="290" y="825" as="sourcePoint" />
            <mxPoint x="720" y="670" as="targetPoint" />
          </mxGeometry>
        </mxCell>
        <mxCell id="mJw2rQprPUVXGZsYBFY_-24" value="Lawyer" style="shape=umlActor;html=1;verticalLabelPosition=bottom;verticalAlign=top;align=center;fillColor=#e1d5e7;strokeColor=#9673a6;" parent="1" vertex="1">
          <mxGeometry x="760" y="830" width="30" height="60" as="geometry" />
        </mxCell>
        <mxCell id="mJw2rQprPUVXGZsYBFY_-25" value="" style="edgeStyle=none;html=1;endArrow=none;verticalAlign=bottom;rounded=0;exitX=1;exitY=0.5;exitDx=0;exitDy=0;entryX=0;entryY=0.3333333333333333;entryDx=0;entryDy=0;entryPerimeter=0;" parent="1" source="mJw2rQprPUVXGZsYBFY_-21" target="mJw2rQprPUVXGZsYBFY_-24" edge="1">
          <mxGeometry width="160" relative="1" as="geometry">
            <mxPoint x="660" y="845" as="sourcePoint" />
            <mxPoint x="730" y="750" as="targetPoint" />
          </mxGeometry>
        </mxCell>
        <mxCell id="mJw2rQprPUVXGZsYBFY_-26" value="&amp;lt;&amp;lt;include&amp;gt;&amp;gt;" style="edgeStyle=none;html=1;endArrow=open;verticalAlign=bottom;dashed=1;labelBackgroundColor=#F5F5F5;rounded=0;entryX=0;entryY=0.5;entryDx=0;entryDy=0;exitX=1;exitY=0.5;exitDx=0;exitDy=0;" parent="1" source="mJw2rQprPUVXGZsYBFY_-19" target="mJw2rQprPUVXGZsYBFY_-21" edge="1">
          <mxGeometry width="160" relative="1" as="geometry">
            <mxPoint x="320" y="870" as="sourcePoint" />
            <mxPoint x="480" y="870" as="targetPoint" />
          </mxGeometry>
        </mxCell>
        <mxCell id="mJw2rQprPUVXGZsYBFY_-27" value="&amp;lt;&amp;lt;include&amp;gt;&amp;gt;" style="edgeStyle=none;html=1;endArrow=open;verticalAlign=bottom;dashed=1;labelBackgroundColor=#F5F5F5;rounded=0;entryX=0;entryY=0.5;entryDx=0;entryDy=0;exitX=1;exitY=0.5;exitDx=0;exitDy=0;" parent="1" source="mJw2rQprPUVXGZsYBFY_-19" target="mJw2rQprPUVXGZsYBFY_-22" edge="1">
          <mxGeometry width="160" relative="1" as="geometry">
            <mxPoint x="285" y="818.95" as="sourcePoint" />
            <mxPoint x="505" y="818.95" as="targetPoint" />
          </mxGeometry>
        </mxCell>
        <mxCell id="mJw2rQprPUVXGZsYBFY_-28" value="&amp;lt;&amp;lt;extend&amp;gt;&amp;gt;&lt;br&gt;{to return items back to vendor}" style="edgeStyle=none;html=1;startArrow=open;endArrow=none;startSize=12;verticalAlign=bottom;dashed=1;labelBackgroundColor=none;rounded=0;exitX=0;exitY=0.5;exitDx=0;exitDy=0;" parent="1" source="mJw2rQprPUVXGZsYBFY_-22" target="mJw2rQprPUVXGZsYBFY_-13" edge="1">
          <mxGeometry y="15" width="160" relative="1" as="geometry">
            <mxPoint x="510" y="765" as="sourcePoint" />
            <mxPoint x="505" y="790" as="targetPoint" />
            <mxPoint x="1" as="offset" />
          </mxGeometry>
        </mxCell>
        <mxCell id="mJw2rQprPUVXGZsYBFY_-29" value="Notify Employee" style="ellipse;whiteSpace=wrap;html=1;fillColor=#dae8fc;strokeColor=#6c8ebf;" parent="1" vertex="1">
          <mxGeometry x="490" y="240" width="140" height="70" as="geometry" />
        </mxCell>
        <mxCell id="mJw2rQprPUVXGZsYBFY_-30" value="Notify Customer" style="ellipse;whiteSpace=wrap;html=1;fillColor=#dae8fc;strokeColor=#6c8ebf;" parent="1" vertex="1">
          <mxGeometry x="580" y="420" width="140" height="70" as="geometry" />
        </mxCell>
        <mxCell id="mJw2rQprPUVXGZsYBFY_-31" value="&amp;lt;&amp;lt;include&amp;gt;&amp;gt;" style="edgeStyle=none;html=1;endArrow=open;verticalAlign=bottom;dashed=1;labelBackgroundColor=#F5F5F5;rounded=0;exitX=1;exitY=0.5;exitDx=0;exitDy=0;entryX=0;entryY=0.5;entryDx=0;entryDy=0;" parent="1" source="mJw2rQprPUVXGZsYBFY_-3" target="mJw2rQprPUVXGZsYBFY_-29" edge="1">
          <mxGeometry width="160" relative="1" as="geometry">
            <mxPoint x="320" y="216.36" as="sourcePoint" />
            <mxPoint x="480" y="315" as="targetPoint" />
          </mxGeometry>
        </mxCell>
        <mxCell id="mJw2rQprPUVXGZsYBFY_-32" value="&amp;lt;&amp;lt;include&amp;gt;&amp;gt;" style="edgeStyle=none;html=1;endArrow=open;verticalAlign=bottom;dashed=1;labelBackgroundColor=#F5F5F5;rounded=0;exitX=1;exitY=0.5;exitDx=0;exitDy=0;entryX=0;entryY=0.5;entryDx=0;entryDy=0;" parent="1" source="mJw2rQprPUVXGZsYBFY_-4" target="mJw2rQprPUVXGZsYBFY_-29" edge="1">
          <mxGeometry width="160" relative="1" as="geometry">
            <mxPoint x="270" y="190" as="sourcePoint" />
            <mxPoint x="490" y="320" as="targetPoint" />
          </mxGeometry>
        </mxCell>
        <mxCell id="mJw2rQprPUVXGZsYBFY_-33" value="&amp;lt;&amp;lt;include&amp;gt;&amp;gt;" style="edgeStyle=none;html=1;endArrow=open;verticalAlign=bottom;dashed=1;labelBackgroundColor=#F5F5F5;rounded=0;exitX=1;exitY=0.5;exitDx=0;exitDy=0;entryX=0;entryY=0.5;entryDx=0;entryDy=0;" parent="1" source="mJw2rQprPUVXGZsYBFY_-5" target="mJw2rQprPUVXGZsYBFY_-29" edge="1">
          <mxGeometry width="160" relative="1" as="geometry">
            <mxPoint x="320" y="330" as="sourcePoint" />
            <mxPoint x="510" y="420" as="targetPoint" />
          </mxGeometry>
        </mxCell>
        <mxCell id="mJw2rQprPUVXGZsYBFY_-34" value="&amp;lt;&amp;lt;include&amp;gt;&amp;gt;" style="edgeStyle=none;html=1;endArrow=open;verticalAlign=bottom;dashed=1;labelBackgroundColor=#F5F5F5;rounded=0;exitX=1;exitY=0.5;exitDx=0;exitDy=0;entryX=0;entryY=1;entryDx=0;entryDy=0;" parent="1" source="mJw2rQprPUVXGZsYBFY_-11" target="mJw2rQprPUVXGZsYBFY_-37" edge="1">
          <mxGeometry x="-0.2875" y="-9" width="160" relative="1" as="geometry">
            <mxPoint x="300" y="350" as="sourcePoint" />
            <mxPoint x="490" y="350" as="targetPoint" />
            <Array as="points">
              <mxPoint x="431" y="530" />
            </Array>
            <mxPoint as="offset" />
          </mxGeometry>
        </mxCell>
        <mxCell id="mJw2rQprPUVXGZsYBFY_-35" value="&amp;lt;&amp;lt;include&amp;gt;&amp;gt;" style="edgeStyle=none;html=1;endArrow=open;verticalAlign=bottom;dashed=1;labelBackgroundColor=#F5F5F5;rounded=0;exitX=1;exitY=0.5;exitDx=0;exitDy=0;entryX=0.5;entryY=1;entryDx=0;entryDy=0;" parent="1" source="mJw2rQprPUVXGZsYBFY_-15" target="mJw2rQprPUVXGZsYBFY_-37" edge="1">
          <mxGeometry x="0.0322" y="-9" width="160" relative="1" as="geometry">
            <mxPoint x="310" y="550" as="sourcePoint" />
            <mxPoint x="500" y="370" as="targetPoint" />
            <mxPoint as="offset" />
            <Array as="points">
              <mxPoint x="480" y="580" />
            </Array>
          </mxGeometry>
        </mxCell>
        <mxCell id="mJw2rQprPUVXGZsYBFY_-36" value="&amp;lt;&amp;lt;include&amp;gt;&amp;gt;" style="edgeStyle=none;html=1;endArrow=open;verticalAlign=bottom;dashed=1;labelBackgroundColor=#F5F5F5;rounded=0;exitX=1;exitY=0.5;exitDx=0;exitDy=0;entryX=0.5;entryY=1;entryDx=0;entryDy=0;" parent="1" source="mJw2rQprPUVXGZsYBFY_-13" target="mJw2rQprPUVXGZsYBFY_-30" edge="1">
          <mxGeometry width="160" relative="1" as="geometry">
            <mxPoint x="300" y="630" as="sourcePoint" />
            <mxPoint x="490" y="360" as="targetPoint" />
            <Array as="points">
              <mxPoint x="650" y="630" />
            </Array>
          </mxGeometry>
        </mxCell>
        <mxCell id="mJw2rQprPUVXGZsYBFY_-37" value="Notify Courier" style="ellipse;whiteSpace=wrap;html=1;fillColor=#dae8fc;strokeColor=#6c8ebf;" parent="1" vertex="1">
          <mxGeometry x="410" y="420" width="140" height="70" as="geometry" />
        </mxCell>
        <mxCell id="mJw2rQprPUVXGZsYBFY_-38" value="" style="edgeStyle=none;html=1;endArrow=block;endFill=0;endSize=12;verticalAlign=bottom;rounded=0;entryX=0.5;entryY=1;entryDx=0;entryDy=0;exitX=0.5;exitY=0;exitDx=0;exitDy=0;" parent="1" source="mJw2rQprPUVXGZsYBFY_-37" target="mJw2rQprPUVXGZsYBFY_-29" edge="1">
          <mxGeometry width="160" relative="1" as="geometry">
            <mxPoint x="470" y="300" as="sourcePoint" />
            <mxPoint x="630" y="300" as="targetPoint" />
            <Array as="points">
              <mxPoint x="480" y="340" />
              <mxPoint x="560" y="340" />
            </Array>
          </mxGeometry>
        </mxCell>
        <mxCell id="mJw2rQprPUVXGZsYBFY_-39" value="&amp;lt;&amp;lt;include&amp;gt;&amp;gt;" style="edgeStyle=none;html=1;endArrow=open;verticalAlign=bottom;dashed=1;labelBackgroundColor=#F5F5F5;rounded=0;exitX=1;exitY=0;exitDx=0;exitDy=0;entryX=1;entryY=1;entryDx=0;entryDy=0;" parent="1" source="mJw2rQprPUVXGZsYBFY_-13" target="mJw2rQprPUVXGZsYBFY_-37" edge="1">
          <mxGeometry x="0.0988" y="-5" width="160" relative="1" as="geometry">
            <mxPoint x="280" y="640" as="sourcePoint" />
            <mxPoint x="480" y="450" as="targetPoint" />
            <mxPoint as="offset" />
            <Array as="points">
              <mxPoint x="529" y="620" />
            </Array>
          </mxGeometry>
        </mxCell>
        <mxCell id="mJw2rQprPUVXGZsYBFY_-40" value="" style="edgeStyle=none;html=1;endArrow=block;endFill=0;endSize=12;verticalAlign=bottom;rounded=0;exitX=0.5;exitY=0;exitDx=0;exitDy=0;entryX=0.5;entryY=1;entryDx=0;entryDy=0;" parent="1" source="mJw2rQprPUVXGZsYBFY_-30" target="mJw2rQprPUVXGZsYBFY_-29" edge="1">
          <mxGeometry width="160" relative="1" as="geometry">
            <mxPoint x="550" y="490" as="sourcePoint" />
            <mxPoint x="590" y="260" as="targetPoint" />
            <Array as="points">
              <mxPoint x="650" y="340" />
              <mxPoint x="560" y="340" />
            </Array>
          </mxGeometry>
        </mxCell>
        <mxCell id="mJw2rQprPUVXGZsYBFY_-41" value="Read Notification" style="ellipse;whiteSpace=wrap;html=1;fillColor=#dae8fc;strokeColor=#6c8ebf;strokeWidth=2;" parent="1" vertex="1">
          <mxGeometry x="150" y="460" width="140" height="70" as="geometry" />
        </mxCell>
        <mxCell id="mJw2rQprPUVXGZsYBFY_-42" value="" style="edgeStyle=none;html=1;endArrow=none;verticalAlign=bottom;rounded=0;entryX=0;entryY=0.5;entryDx=0;entryDy=0;exitX=1;exitY=0.3333333333333333;exitDx=0;exitDy=0;exitPerimeter=0;" parent="1" source="mJw2rQprPUVXGZsYBFY_-2" target="mJw2rQprPUVXGZsYBFY_-41" edge="1">
          <mxGeometry width="160" relative="1" as="geometry">
            <mxPoint x="-5" y="390" as="sourcePoint" />
            <mxPoint x="115" y="535" as="targetPoint" />
          </mxGeometry>
        </mxCell>
        <mxCell id="mJw2rQprPUVXGZsYBFY_-43" value="" style="edgeStyle=none;html=1;endArrow=none;verticalAlign=bottom;rounded=0;entryX=0;entryY=0.5;entryDx=0;entryDy=0;exitX=1;exitY=0.3333333333333333;exitDx=0;exitDy=0;exitPerimeter=0;" parent="1" source="mJw2rQprPUVXGZsYBFY_-12" target="mJw2rQprPUVXGZsYBFY_-41" edge="1">
          <mxGeometry width="160" relative="1" as="geometry">
            <mxPoint x="-20" y="430" as="sourcePoint" />
            <mxPoint x="135" y="535" as="targetPoint" />
          </mxGeometry>
        </mxCell>
        <mxCell id="W5mJU1J2bHBTAZ4_h4Ad-1" value="all use cases here require an active session" style="shape=note;strokeWidth=2;fontSize=14;size=20;whiteSpace=wrap;html=1;fillColor=#fff2cc;strokeColor=#d6b656;fontColor=#666600;" vertex="1" parent="1">
          <mxGeometry x="510" y="100" width="150" height="90" as="geometry" />
        </mxCell>
      </root>
    </mxGraphModel>
  </diagram>
  <diagram id="5X--FjgmYaaa3L4n9_Vn" name="Main-2">
    <mxGraphModel dx="933" dy="715" grid="1" gridSize="10" guides="1" tooltips="1" connect="1" arrows="1" fold="1" page="1" pageScale="1" pageWidth="850" pageHeight="1100" math="0" shadow="0">
      <root>
        <mxCell id="0" />
        <mxCell id="1" parent="0" />
        <mxCell id="Gpt2D1G34cBwJIzxUsgP-1" value="Main-2" style="shape=note;html=1;verticalAlign=top;fontStyle=1;whiteSpace=wrap;align=center;fillColor=#F5F5F5;fontColor=#333333;strokeColor=#666666;size=0;spacingLeft=5;labelBackgroundColor=#f5f5f5;" parent="1" vertex="1">
          <mxGeometry x="110" y="40" width="760" height="1240" as="geometry" />
        </mxCell>
        <mxCell id="Gpt2D1G34cBwJIzxUsgP-2" value="Request Items from Vendor" style="ellipse;whiteSpace=wrap;html=1;fillColor=#dae8fc;strokeColor=#6c8ebf;strokeWidth=2;" parent="1" vertex="1">
          <mxGeometry x="150" y="225" width="140" height="70" as="geometry" />
        </mxCell>
        <mxCell id="Gpt2D1G34cBwJIzxUsgP-3" value="" style="edgeStyle=none;html=1;endArrow=none;verticalAlign=bottom;rounded=0;exitX=1;exitY=0.3333333333333333;exitDx=0;exitDy=0;entryX=0;entryY=0.5;entryDx=0;entryDy=0;exitPerimeter=0;" parent="1" source="Gpt2D1G34cBwJIzxUsgP-13" target="Gpt2D1G34cBwJIzxUsgP-2" edge="1">
          <mxGeometry width="160" relative="1" as="geometry">
            <mxPoint x="-125" y="315" as="sourcePoint" />
            <mxPoint x="-15" y="310" as="targetPoint" />
          </mxGeometry>
        </mxCell>
        <mxCell id="Gpt2D1G34cBwJIzxUsgP-5" value="Notify Vendor" style="ellipse;whiteSpace=wrap;html=1;fillColor=#dae8fc;strokeColor=#6c8ebf;" parent="1" vertex="1">
          <mxGeometry x="380" y="225" width="140" height="70" as="geometry" />
        </mxCell>
        <mxCell id="Gpt2D1G34cBwJIzxUsgP-6" value="" style="edgeStyle=none;html=1;endArrow=block;endFill=0;endSize=12;verticalAlign=bottom;rounded=0;entryX=0.5;entryY=1;entryDx=0;entryDy=0;exitX=0.5;exitY=0;exitDx=0;exitDy=0;" parent="1" source="Gpt2D1G34cBwJIzxUsgP-5" target="Gpt2D1G34cBwJIzxUsgP-7" edge="1">
          <mxGeometry width="160" relative="1" as="geometry">
            <mxPoint x="500" y="142.5" as="sourcePoint" />
            <mxPoint x="660" y="142.5" as="targetPoint" />
            <Array as="points">
              <mxPoint x="450" y="190" />
              <mxPoint x="610" y="190" />
            </Array>
          </mxGeometry>
        </mxCell>
        <mxCell id="Gpt2D1G34cBwJIzxUsgP-7" value="Notify Employee" style="ellipse;whiteSpace=wrap;html=1;fillColor=#dae8fc;strokeColor=#6c8ebf;" parent="1" vertex="1">
          <mxGeometry x="540" y="80" width="140" height="70" as="geometry" />
        </mxCell>
        <mxCell id="Gpt2D1G34cBwJIzxUsgP-8" value="&amp;lt;&amp;lt;include&amp;gt;&amp;gt;" style="edgeStyle=none;html=1;endArrow=open;verticalAlign=bottom;dashed=1;labelBackgroundColor=#F5F5F5;rounded=0;exitX=1;exitY=0.5;exitDx=0;exitDy=0;entryX=0;entryY=0.5;entryDx=0;entryDy=0;" parent="1" source="Gpt2D1G34cBwJIzxUsgP-2" target="Gpt2D1G34cBwJIzxUsgP-5" edge="1">
          <mxGeometry width="160" relative="1" as="geometry">
            <mxPoint x="240" y="260" as="sourcePoint" />
            <mxPoint x="470" y="135" as="targetPoint" />
          </mxGeometry>
        </mxCell>
        <mxCell id="Gpt2D1G34cBwJIzxUsgP-9" value="Customer" style="shape=umlActor;html=1;verticalLabelPosition=bottom;verticalAlign=top;align=center;fillColor=#e1d5e7;strokeColor=#9673a6;" parent="1" vertex="1">
          <mxGeometry x="40" y="840" width="30" height="60" as="geometry" />
        </mxCell>
        <mxCell id="Gpt2D1G34cBwJIzxUsgP-11" value="Notify Customer" style="ellipse;whiteSpace=wrap;html=1;fillColor=#dae8fc;strokeColor=#6c8ebf;" parent="1" vertex="1">
          <mxGeometry x="540" y="230" width="140" height="70" as="geometry" />
        </mxCell>
        <mxCell id="Gpt2D1G34cBwJIzxUsgP-12" value="" style="edgeStyle=none;html=1;endArrow=block;endFill=0;endSize=12;verticalAlign=bottom;rounded=0;entryX=0.5;entryY=1;entryDx=0;entryDy=0;exitX=0.5;exitY=0;exitDx=0;exitDy=0;" parent="1" source="Gpt2D1G34cBwJIzxUsgP-11" target="Gpt2D1G34cBwJIzxUsgP-7" edge="1">
          <mxGeometry width="160" relative="1" as="geometry">
            <mxPoint x="590" y="210" as="sourcePoint" />
            <mxPoint x="690" y="143" as="targetPoint" />
            <Array as="points">
              <mxPoint x="610" y="190" />
            </Array>
          </mxGeometry>
        </mxCell>
        <mxCell id="Gpt2D1G34cBwJIzxUsgP-13" value="Courier" style="shape=umlActor;html=1;verticalLabelPosition=bottom;verticalAlign=top;align=center;fillColor=#e1d5e7;strokeColor=#9673a6;" parent="1" vertex="1">
          <mxGeometry x="40" y="320" width="30" height="60" as="geometry" />
        </mxCell>
        <mxCell id="Gpt2D1G34cBwJIzxUsgP-14" value="Confirm Delivery &lt;br&gt;of Items" style="ellipse;whiteSpace=wrap;html=1;fillColor=#dae8fc;strokeColor=#6c8ebf;strokeWidth=2;" parent="1" vertex="1">
          <mxGeometry x="150" y="310" width="140" height="70" as="geometry" />
        </mxCell>
        <mxCell id="Gpt2D1G34cBwJIzxUsgP-15" value="" style="edgeStyle=none;html=1;endArrow=none;verticalAlign=bottom;rounded=0;exitX=1;exitY=0.3333333333333333;exitDx=0;exitDy=0;entryX=0;entryY=0.5;entryDx=0;entryDy=0;exitPerimeter=0;" parent="1" source="Gpt2D1G34cBwJIzxUsgP-13" target="Gpt2D1G34cBwJIzxUsgP-14" edge="1">
          <mxGeometry width="160" relative="1" as="geometry">
            <mxPoint x="50" y="345" as="sourcePoint" />
            <mxPoint x="150" y="255" as="targetPoint" />
          </mxGeometry>
        </mxCell>
        <mxCell id="Gpt2D1G34cBwJIzxUsgP-16" value="&amp;lt;&amp;lt;include&amp;gt;&amp;gt;" style="edgeStyle=none;html=1;endArrow=open;verticalAlign=bottom;dashed=1;labelBackgroundColor=#F5F5F5;rounded=0;exitX=1;exitY=0.5;exitDx=0;exitDy=0;entryX=0.5;entryY=1;entryDx=0;entryDy=0;" parent="1" source="Gpt2D1G34cBwJIzxUsgP-14" target="Gpt2D1G34cBwJIzxUsgP-11" edge="1">
          <mxGeometry width="160" relative="1" as="geometry">
            <mxPoint x="300" y="320" as="sourcePoint" />
            <mxPoint x="430" y="320" as="targetPoint" />
            <Array as="points">
              <mxPoint x="610" y="345" />
            </Array>
          </mxGeometry>
        </mxCell>
        <mxCell id="Gpt2D1G34cBwJIzxUsgP-17" value="Confirm Successful Delivery of Items" style="ellipse;whiteSpace=wrap;html=1;fillColor=#dae8fc;strokeColor=#6c8ebf;strokeWidth=2;" parent="1" vertex="1">
          <mxGeometry x="145" y="630" width="140" height="70" as="geometry" />
        </mxCell>
        <mxCell id="Gpt2D1G34cBwJIzxUsgP-18" value="Report Unsuccessful Delivery of Items" style="ellipse;whiteSpace=wrap;html=1;fillColor=#dae8fc;strokeColor=#6c8ebf;strokeWidth=2;" parent="1" vertex="1">
          <mxGeometry x="145" y="710" width="140" height="70" as="geometry" />
        </mxCell>
        <mxCell id="Gpt2D1G34cBwJIzxUsgP-19" value="" style="edgeStyle=none;html=1;endArrow=none;verticalAlign=bottom;rounded=0;exitX=1;exitY=0.3333333333333333;exitDx=0;exitDy=0;entryX=0;entryY=0.5;entryDx=0;entryDy=0;exitPerimeter=0;" parent="1" source="Gpt2D1G34cBwJIzxUsgP-9" target="Gpt2D1G34cBwJIzxUsgP-17" edge="1">
          <mxGeometry width="160" relative="1" as="geometry">
            <mxPoint x="60" y="450" as="sourcePoint" />
            <mxPoint x="160" y="480" as="targetPoint" />
          </mxGeometry>
        </mxCell>
        <mxCell id="Gpt2D1G34cBwJIzxUsgP-20" value="" style="edgeStyle=none;html=1;endArrow=none;verticalAlign=bottom;rounded=0;exitX=1;exitY=0.3333333333333333;exitDx=0;exitDy=0;entryX=0;entryY=0.5;entryDx=0;entryDy=0;exitPerimeter=0;" parent="1" source="Gpt2D1G34cBwJIzxUsgP-9" target="Gpt2D1G34cBwJIzxUsgP-18" edge="1">
          <mxGeometry width="160" relative="1" as="geometry">
            <mxPoint x="60" y="590" as="sourcePoint" />
            <mxPoint x="160" y="595" as="targetPoint" />
          </mxGeometry>
        </mxCell>
        <mxCell id="Gpt2D1G34cBwJIzxUsgP-21" value="Read Notification" style="ellipse;whiteSpace=wrap;html=1;fillColor=#dae8fc;strokeColor=#6c8ebf;strokeWidth=2;" parent="1" vertex="1">
          <mxGeometry x="145" y="470" width="140" height="70" as="geometry" />
        </mxCell>
        <mxCell id="Gpt2D1G34cBwJIzxUsgP-22" value="" style="edgeStyle=none;html=1;endArrow=none;verticalAlign=bottom;rounded=0;exitX=1;exitY=0.3333333333333333;exitDx=0;exitDy=0;entryX=0;entryY=0.5;entryDx=0;entryDy=0;exitPerimeter=0;" parent="1" source="Gpt2D1G34cBwJIzxUsgP-9" target="Gpt2D1G34cBwJIzxUsgP-21" edge="1">
          <mxGeometry width="160" relative="1" as="geometry">
            <mxPoint x="55" y="750" as="sourcePoint" />
            <mxPoint x="150" y="895" as="targetPoint" />
          </mxGeometry>
        </mxCell>
        <mxCell id="Gpt2D1G34cBwJIzxUsgP-23" value="" style="edgeStyle=none;html=1;endArrow=none;verticalAlign=bottom;rounded=0;exitX=1;exitY=0.3333333333333333;exitDx=0;exitDy=0;entryX=0;entryY=0.5;entryDx=0;entryDy=0;exitPerimeter=0;" parent="1" source="Gpt2D1G34cBwJIzxUsgP-13" target="Gpt2D1G34cBwJIzxUsgP-21" edge="1">
          <mxGeometry width="160" relative="1" as="geometry">
            <mxPoint x="50" y="345" as="sourcePoint" />
            <mxPoint x="150" y="380" as="targetPoint" />
          </mxGeometry>
        </mxCell>
        <mxCell id="Gpt2D1G34cBwJIzxUsgP-24" value="View Assigned &lt;br&gt;Delivery Tasks" style="ellipse;whiteSpace=wrap;html=1;fillColor=#dae8fc;strokeColor=#6c8ebf;strokeWidth=2;" parent="1" vertex="1">
          <mxGeometry x="155" y="140" width="140" height="70" as="geometry" />
        </mxCell>
        <mxCell id="Gpt2D1G34cBwJIzxUsgP-25" value="" style="edgeStyle=none;html=1;endArrow=none;verticalAlign=bottom;rounded=0;exitX=1;exitY=0.3333333333333333;exitDx=0;exitDy=0;entryX=0;entryY=0.5;entryDx=0;entryDy=0;exitPerimeter=0;" parent="1" source="Gpt2D1G34cBwJIzxUsgP-13" target="Gpt2D1G34cBwJIzxUsgP-24" edge="1">
          <mxGeometry width="160" relative="1" as="geometry">
            <mxPoint x="30" y="250" as="sourcePoint" />
            <mxPoint x="130" y="170" as="targetPoint" />
          </mxGeometry>
        </mxCell>
        <mxCell id="Gpt2D1G34cBwJIzxUsgP-28" value="Browse Items In Stock" style="ellipse;whiteSpace=wrap;html=1;fillColor=#dae8fc;strokeColor=#6c8ebf;strokeWidth=2;" parent="1" vertex="1">
          <mxGeometry x="145" y="790" width="140" height="70" as="geometry" />
        </mxCell>
        <mxCell id="Gpt2D1G34cBwJIzxUsgP-29" value="Put Items in&amp;nbsp;Cart" style="ellipse;whiteSpace=wrap;html=1;fillColor=#dae8fc;strokeColor=#6c8ebf;strokeWidth=2;" parent="1" vertex="1">
          <mxGeometry x="420" y="790" width="140" height="70" as="geometry" />
        </mxCell>
        <mxCell id="Gpt2D1G34cBwJIzxUsgP-30" value="" style="edgeStyle=none;html=1;endArrow=none;verticalAlign=bottom;rounded=0;exitX=1;exitY=0.3333333333333333;exitDx=0;exitDy=0;entryX=0;entryY=0.5;entryDx=0;entryDy=0;exitPerimeter=0;" parent="1" source="Gpt2D1G34cBwJIzxUsgP-9" target="Gpt2D1G34cBwJIzxUsgP-28" edge="1">
          <mxGeometry width="160" relative="1" as="geometry">
            <mxPoint x="50" y="810" as="sourcePoint" />
            <mxPoint x="145" y="895" as="targetPoint" />
          </mxGeometry>
        </mxCell>
        <mxCell id="Gpt2D1G34cBwJIzxUsgP-31" value="&amp;lt;&amp;lt;include&amp;gt;&amp;gt;" style="edgeStyle=none;html=1;endArrow=open;verticalAlign=bottom;dashed=1;labelBackgroundColor=#F5F5F5;rounded=0;exitX=1;exitY=0.5;exitDx=0;exitDy=0;entryX=0;entryY=0.5;entryDx=0;entryDy=0;" parent="1" source="Gpt2D1G34cBwJIzxUsgP-28" target="Gpt2D1G34cBwJIzxUsgP-29" edge="1">
          <mxGeometry width="160" relative="1" as="geometry">
            <mxPoint x="259" y="850.25" as="sourcePoint" />
            <mxPoint x="410" y="875.25" as="targetPoint" />
          </mxGeometry>
        </mxCell>
        <mxCell id="Gpt2D1G34cBwJIzxUsgP-32" value="View the Items in Cart" style="ellipse;whiteSpace=wrap;html=1;fillColor=#dae8fc;strokeColor=#6c8ebf;strokeWidth=2;" parent="1" vertex="1">
          <mxGeometry x="145" y="950" width="140" height="70" as="geometry" />
        </mxCell>
        <mxCell id="Gpt2D1G34cBwJIzxUsgP-33" value="" style="edgeStyle=none;html=1;endArrow=none;verticalAlign=bottom;rounded=0;exitX=1;exitY=0.3333333333333333;exitDx=0;exitDy=0;entryX=0;entryY=0.5;entryDx=0;entryDy=0;exitPerimeter=0;" parent="1" source="Gpt2D1G34cBwJIzxUsgP-9" target="Gpt2D1G34cBwJIzxUsgP-32" edge="1">
          <mxGeometry width="160" relative="1" as="geometry">
            <mxPoint x="45" y="950" as="sourcePoint" />
            <mxPoint x="140" y="1105" as="targetPoint" />
          </mxGeometry>
        </mxCell>
        <mxCell id="Gpt2D1G34cBwJIzxUsgP-34" value="Change Item Quantity" style="ellipse;whiteSpace=wrap;html=1;fillColor=#dae8fc;strokeColor=#6c8ebf;strokeWidth=2;" parent="1" vertex="1">
          <mxGeometry x="420" y="950" width="140" height="70" as="geometry" />
        </mxCell>
        <mxCell id="Gpt2D1G34cBwJIzxUsgP-35" value="&amp;lt;&amp;lt;include&amp;gt;&amp;gt;" style="edgeStyle=none;html=1;endArrow=open;verticalAlign=bottom;dashed=1;labelBackgroundColor=#F5F5F5;rounded=0;exitX=1;exitY=0.5;exitDx=0;exitDy=0;entryX=0;entryY=0.5;entryDx=0;entryDy=0;" parent="1" source="Gpt2D1G34cBwJIzxUsgP-32" target="Gpt2D1G34cBwJIzxUsgP-34" edge="1">
          <mxGeometry x="-0.037" width="160" relative="1" as="geometry">
            <mxPoint x="285" y="965" as="sourcePoint" />
            <mxPoint x="410" y="955.25" as="targetPoint" />
            <mxPoint as="offset" />
          </mxGeometry>
        </mxCell>
        <mxCell id="Gpt2D1G34cBwJIzxUsgP-36" value="Remove Items&lt;br style=&quot;border-color: var(--border-color);&quot;&gt;from Cart" style="ellipse;whiteSpace=wrap;html=1;fillColor=#dae8fc;strokeColor=#6c8ebf;strokeWidth=2;" parent="1" vertex="1">
          <mxGeometry x="420" y="1030" width="140" height="70" as="geometry" />
        </mxCell>
        <mxCell id="Gpt2D1G34cBwJIzxUsgP-37" value="&amp;lt;&amp;lt;include&amp;gt;&amp;gt;" style="edgeStyle=none;html=1;endArrow=open;verticalAlign=bottom;dashed=1;labelBackgroundColor=#F5F5F5;rounded=0;exitX=1;exitY=0.5;exitDx=0;exitDy=0;entryX=0;entryY=0.5;entryDx=0;entryDy=0;" parent="1" source="Gpt2D1G34cBwJIzxUsgP-32" target="Gpt2D1G34cBwJIzxUsgP-36" edge="1">
          <mxGeometry x="-0.1788" width="160" relative="1" as="geometry">
            <mxPoint x="280" y="1030" as="sourcePoint" />
            <mxPoint x="415" y="1030" as="targetPoint" />
            <mxPoint y="-1" as="offset" />
            <Array as="points">
              <mxPoint x="350" y="1065" />
            </Array>
          </mxGeometry>
        </mxCell>
        <mxCell id="Gpt2D1G34cBwJIzxUsgP-38" value="View the Total Price" style="ellipse;whiteSpace=wrap;html=1;fillColor=#dae8fc;strokeColor=#6c8ebf;strokeWidth=2;" parent="1" vertex="1">
          <mxGeometry x="420" y="870" width="140" height="70" as="geometry" />
        </mxCell>
        <mxCell id="Gpt2D1G34cBwJIzxUsgP-39" value="&amp;lt;&amp;lt;include&amp;gt;&amp;gt;" style="edgeStyle=none;html=1;endArrow=open;verticalAlign=bottom;dashed=1;labelBackgroundColor=#F5F5F5;rounded=0;exitX=1;exitY=0.5;exitDx=0;exitDy=0;entryX=0;entryY=0.5;entryDx=0;entryDy=0;" parent="1" source="Gpt2D1G34cBwJIzxUsgP-32" target="Gpt2D1G34cBwJIzxUsgP-38" edge="1">
          <mxGeometry x="-0.1788" width="160" relative="1" as="geometry">
            <mxPoint x="280" y="990" as="sourcePoint" />
            <mxPoint x="415" y="990" as="targetPoint" />
            <mxPoint y="1" as="offset" />
            <Array as="points">
              <mxPoint x="350" y="905" />
            </Array>
          </mxGeometry>
        </mxCell>
        <mxCell id="Gpt2D1G34cBwJIzxUsgP-40" value="Purchase" style="ellipse;whiteSpace=wrap;html=1;fillColor=#dae8fc;strokeColor=#6c8ebf;strokeWidth=2;" parent="1" vertex="1">
          <mxGeometry x="145" y="1090" width="140" height="70" as="geometry" />
        </mxCell>
        <mxCell id="Gpt2D1G34cBwJIzxUsgP-42" value="Make Payment" style="ellipse;whiteSpace=wrap;html=1;fillColor=#dae8fc;strokeColor=#6c8ebf;" parent="1" vertex="1">
          <mxGeometry x="680" y="1090" width="140" height="70" as="geometry" />
        </mxCell>
        <mxCell id="Gpt2D1G34cBwJIzxUsgP-43" value="&amp;lt;&amp;lt;include&amp;gt;&amp;gt;" style="edgeStyle=none;html=1;endArrow=open;verticalAlign=bottom;dashed=1;labelBackgroundColor=#F5F5F5;rounded=0;exitX=1;exitY=0.5;exitDx=0;exitDy=0;entryX=0;entryY=0.5;entryDx=0;entryDy=0;" parent="1" source="Gpt2D1G34cBwJIzxUsgP-40" target="Gpt2D1G34cBwJIzxUsgP-42" edge="1">
          <mxGeometry x="-0.1111" width="160" relative="1" as="geometry">
            <mxPoint x="280" y="1100" as="sourcePoint" />
            <mxPoint x="415" y="1260" as="targetPoint" />
            <mxPoint as="offset" />
          </mxGeometry>
        </mxCell>
        <mxCell id="Gpt2D1G34cBwJIzxUsgP-44" value="Choose Payment &lt;br&gt;Method" style="ellipse;whiteSpace=wrap;html=1;fillColor=#dae8fc;strokeColor=#6c8ebf;strokeWidth=2;" parent="1" vertex="1">
          <mxGeometry x="680" y="950" width="140" height="70" as="geometry" />
        </mxCell>
        <mxCell id="Gpt2D1G34cBwJIzxUsgP-45" value="&amp;lt;&amp;lt;include&amp;gt;&amp;gt;" style="edgeStyle=none;html=1;endArrow=open;verticalAlign=bottom;dashed=1;labelBackgroundColor=#F5F5F5;rounded=0;exitX=0.5;exitY=0;exitDx=0;exitDy=0;entryX=0.5;entryY=1;entryDx=0;entryDy=0;" parent="1" source="Gpt2D1G34cBwJIzxUsgP-42" target="Gpt2D1G34cBwJIzxUsgP-44" edge="1">
          <mxGeometry x="-0.1429" width="160" relative="1" as="geometry">
            <mxPoint x="630" y="1124.4699999999998" as="sourcePoint" />
            <mxPoint x="720" y="1124.4699999999998" as="targetPoint" />
            <mxPoint y="-1" as="offset" />
          </mxGeometry>
        </mxCell>
        <mxCell id="Gpt2D1G34cBwJIzxUsgP-46" value="Confirm Transfer of&lt;br style=&quot;border-color: var(--border-color);&quot;&gt;Items to Customer" style="ellipse;whiteSpace=wrap;html=1;fillColor=#dae8fc;strokeColor=#6c8ebf;strokeWidth=2;" parent="1" vertex="1">
          <mxGeometry x="145" y="390" width="140" height="70" as="geometry" />
        </mxCell>
        <mxCell id="Gpt2D1G34cBwJIzxUsgP-47" value="" style="edgeStyle=none;html=1;endArrow=none;verticalAlign=bottom;rounded=0;exitX=1;exitY=0.3333333333333333;exitDx=0;exitDy=0;entryX=0;entryY=0.5;entryDx=0;entryDy=0;exitPerimeter=0;" parent="1" source="Gpt2D1G34cBwJIzxUsgP-13" target="Gpt2D1G34cBwJIzxUsgP-46" edge="1">
          <mxGeometry width="160" relative="1" as="geometry">
            <mxPoint x="45" y="380" as="sourcePoint" />
            <mxPoint x="140" y="545" as="targetPoint" />
          </mxGeometry>
        </mxCell>
        <mxCell id="Gpt2D1G34cBwJIzxUsgP-48" value="Notify Manager" style="ellipse;whiteSpace=wrap;html=1;fillColor=#dae8fc;strokeColor=#6c8ebf;" parent="1" vertex="1">
          <mxGeometry x="700" y="230" width="140" height="70" as="geometry" />
        </mxCell>
        <mxCell id="Gpt2D1G34cBwJIzxUsgP-49" value="" style="edgeStyle=none;html=1;endArrow=block;endFill=0;endSize=12;verticalAlign=bottom;rounded=0;entryX=0.5;entryY=1;entryDx=0;entryDy=0;exitX=0.5;exitY=0;exitDx=0;exitDy=0;" parent="1" source="Gpt2D1G34cBwJIzxUsgP-48" target="Gpt2D1G34cBwJIzxUsgP-7" edge="1">
          <mxGeometry width="160" relative="1" as="geometry">
            <mxPoint x="610" y="230" as="sourcePoint" />
            <mxPoint x="530" y="160" as="targetPoint" />
            <Array as="points">
              <mxPoint x="770" y="190" />
              <mxPoint x="610" y="190" />
            </Array>
          </mxGeometry>
        </mxCell>
        <mxCell id="Gpt2D1G34cBwJIzxUsgP-50" value="&amp;lt;&amp;lt;include&amp;gt;&amp;gt;" style="edgeStyle=none;html=1;endArrow=open;verticalAlign=bottom;dashed=1;labelBackgroundColor=#F5F5F5;rounded=0;exitX=1;exitY=0.5;exitDx=0;exitDy=0;entryX=0.5;entryY=1;entryDx=0;entryDy=0;" parent="1" source="Gpt2D1G34cBwJIzxUsgP-46" target="Gpt2D1G34cBwJIzxUsgP-48" edge="1">
          <mxGeometry width="160" relative="1" as="geometry">
            <mxPoint x="295" y="405" as="sourcePoint" />
            <mxPoint x="615" y="360" as="targetPoint" />
            <Array as="points">
              <mxPoint x="390" y="380" />
              <mxPoint x="770" y="380" />
            </Array>
          </mxGeometry>
        </mxCell>
        <mxCell id="Gpt2D1G34cBwJIzxUsgP-51" value="Deduct Fees" style="ellipse;whiteSpace=wrap;html=1;fillColor=#dae8fc;strokeColor=#6c8ebf;strokeWidth=1;" parent="1" vertex="1">
          <mxGeometry x="680" y="550" width="140" height="70" as="geometry" />
        </mxCell>
        <mxCell id="Gpt2D1G34cBwJIzxUsgP-52" value="&amp;lt;&amp;lt;include&amp;gt;&amp;gt;" style="edgeStyle=none;html=1;endArrow=open;verticalAlign=bottom;dashed=1;labelBackgroundColor=#F5F5F5;rounded=0;entryX=0.145;entryY=0.145;entryDx=0;entryDy=0;exitX=1;exitY=1;exitDx=0;exitDy=0;entryPerimeter=0;" parent="1" source="Gpt2D1G34cBwJIzxUsgP-46" target="Gpt2D1G34cBwJIzxUsgP-55" edge="1">
          <mxGeometry width="160" relative="1" as="geometry">
            <mxPoint x="290" y="530" as="sourcePoint" />
            <mxPoint x="410.5025253169417" y="530.2512626584708" as="targetPoint" />
          </mxGeometry>
        </mxCell>
        <mxCell id="Gpt2D1G34cBwJIzxUsgP-53" value="&amp;lt;&amp;lt;include&amp;gt;&amp;gt;" style="edgeStyle=none;html=1;endArrow=open;verticalAlign=bottom;dashed=1;labelBackgroundColor=#F5F5F5;rounded=0;entryX=0;entryY=0.5;entryDx=0;entryDy=0;exitX=1;exitY=0.5;exitDx=0;exitDy=0;entryPerimeter=0;" parent="1" source="Gpt2D1G34cBwJIzxUsgP-17" target="Gpt2D1G34cBwJIzxUsgP-55" edge="1">
          <mxGeometry width="160" relative="1" as="geometry">
            <mxPoint x="290" y="655" as="sourcePoint" />
            <mxPoint x="410.5025253169417" y="579.7487373415292" as="targetPoint" />
          </mxGeometry>
        </mxCell>
        <mxCell id="Gpt2D1G34cBwJIzxUsgP-54" value="Transfer Money &lt;br&gt;to Vendor" style="ellipse;whiteSpace=wrap;html=1;fillColor=#dae8fc;strokeColor=#6c8ebf;strokeWidth=1;" parent="1" vertex="1">
          <mxGeometry x="680" y="390" width="140" height="70" as="geometry" />
        </mxCell>
        <mxCell id="Gpt2D1G34cBwJIzxUsgP-55" value="&lt;br&gt;extension points&lt;br&gt;Complete Delivery,&lt;br&gt;Handle Conflict &amp;amp; Failure" style="html=1;shape=mxgraph.sysml.useCaseExtPt;whiteSpace=wrap;align=center;fillColor=#dae8fc;strokeColor=#6c8ebf;" parent="1" vertex="1">
          <mxGeometry x="405" y="540" width="170" height="110" as="geometry" />
        </mxCell>
        <mxCell id="Gpt2D1G34cBwJIzxUsgP-56" value="Handle Delivery Case" style="resizable=0;html=1;verticalAlign=middle;align=center;labelBackgroundColor=none;fontStyle=1;" parent="Gpt2D1G34cBwJIzxUsgP-55" connectable="0" vertex="1">
          <mxGeometry x="85" y="23.375" as="geometry">
            <mxPoint y="3" as="offset" />
          </mxGeometry>
        </mxCell>
        <mxCell id="Gpt2D1G34cBwJIzxUsgP-57" value="&amp;lt;&amp;lt;include&amp;gt;&amp;gt;" style="edgeStyle=none;html=1;endArrow=open;verticalAlign=bottom;dashed=1;labelBackgroundColor=#F5F5F5;rounded=0;exitX=1;exitY=0.5;exitDx=0;exitDy=0;entryX=0.145;entryY=0.855;entryDx=0;entryDy=0;entryPerimeter=0;" parent="1" source="Gpt2D1G34cBwJIzxUsgP-18" target="Gpt2D1G34cBwJIzxUsgP-55" edge="1">
          <mxGeometry width="160" relative="1" as="geometry">
            <mxPoint x="315" y="730" as="sourcePoint" />
            <mxPoint x="420" y="730" as="targetPoint" />
          </mxGeometry>
        </mxCell>
        <mxCell id="Gpt2D1G34cBwJIzxUsgP-58" value="&amp;lt;&amp;lt;extend&amp;gt;&amp;gt;" style="edgeStyle=none;html=1;startArrow=open;endArrow=none;startSize=12;verticalAlign=bottom;dashed=1;labelBackgroundColor=#F5F5F5;rounded=0;entryX=0.5;entryY=1;entryDx=0;entryDy=0;exitX=0.5;exitY=0;exitDx=0;exitDy=0;exitPerimeter=0;" parent="1" source="Gpt2D1G34cBwJIzxUsgP-55" target="Gpt2D1G34cBwJIzxUsgP-61" edge="1">
          <mxGeometry width="160" relative="1" as="geometry">
            <mxPoint x="550" y="480" as="sourcePoint" />
            <mxPoint x="710" y="480" as="targetPoint" />
            <mxPoint as="offset" />
          </mxGeometry>
        </mxCell>
        <mxCell id="Gpt2D1G34cBwJIzxUsgP-59" value="&amp;lt;&amp;lt;extend&amp;gt;&amp;gt;" style="edgeStyle=none;html=1;startArrow=open;endArrow=none;startSize=12;verticalAlign=bottom;dashed=1;labelBackgroundColor=#F5F5F5;rounded=0;entryX=0.5;entryY=0;entryDx=0;entryDy=0;exitX=0.5;exitY=1;exitDx=0;exitDy=0;exitPerimeter=0;" parent="1" source="Gpt2D1G34cBwJIzxUsgP-55" target="Gpt2D1G34cBwJIzxUsgP-63" edge="1">
          <mxGeometry x="0.4545" width="160" relative="1" as="geometry">
            <mxPoint x="425" y="700" as="sourcePoint" />
            <mxPoint x="540" y="669" as="targetPoint" />
            <mxPoint as="offset" />
          </mxGeometry>
        </mxCell>
        <mxCell id="Gpt2D1G34cBwJIzxUsgP-60" value="&amp;lt;&amp;lt;include&amp;gt;&amp;gt;" style="edgeStyle=none;html=1;endArrow=open;verticalAlign=bottom;dashed=1;labelBackgroundColor=#F5F5F5;rounded=0;exitX=0.5;exitY=1;exitDx=0;exitDy=0;entryX=0.5;entryY=0;entryDx=0;entryDy=0;" parent="1" source="Gpt2D1G34cBwJIzxUsgP-54" target="Gpt2D1G34cBwJIzxUsgP-51" edge="1">
          <mxGeometry width="160" relative="1" as="geometry">
            <mxPoint x="390" y="770.9499999999998" as="sourcePoint" />
            <mxPoint x="540" y="629.9499999999998" as="targetPoint" />
          </mxGeometry>
        </mxCell>
        <mxCell id="Gpt2D1G34cBwJIzxUsgP-61" value="Complete Delivery" style="ellipse;whiteSpace=wrap;html=1;fillColor=#dae8fc;strokeColor=#6c8ebf;strokeWidth=1;" parent="1" vertex="1">
          <mxGeometry x="420" y="390" width="140" height="70" as="geometry" />
        </mxCell>
        <mxCell id="Gpt2D1G34cBwJIzxUsgP-62" value="&amp;lt;&amp;lt;include&amp;gt;&amp;gt;" style="edgeStyle=none;html=1;endArrow=open;verticalAlign=bottom;dashed=1;labelBackgroundColor=#F5F5F5;rounded=0;exitX=1;exitY=0.5;exitDx=0;exitDy=0;entryX=0;entryY=0.5;entryDx=0;entryDy=0;" parent="1" source="Gpt2D1G34cBwJIzxUsgP-61" target="Gpt2D1G34cBwJIzxUsgP-54" edge="1">
          <mxGeometry width="160" relative="1" as="geometry">
            <mxPoint x="679.31" y="525" as="sourcePoint" />
            <mxPoint x="679.31" y="580" as="targetPoint" />
          </mxGeometry>
        </mxCell>
        <mxCell id="Gpt2D1G34cBwJIzxUsgP-63" value="Handle Conflict &amp;amp;&lt;br&gt;Failure" style="ellipse;whiteSpace=wrap;html=1;fillColor=#dae8fc;strokeColor=#6c8ebf;strokeWidth=1;" parent="1" vertex="1">
          <mxGeometry x="420" y="705" width="140" height="70" as="geometry" />
        </mxCell>
        <mxCell id="Gpt2D1G34cBwJIzxUsgP-64" value="&amp;lt;&amp;lt;include&amp;gt;&amp;gt;" style="edgeStyle=none;html=1;endArrow=open;verticalAlign=bottom;dashed=1;labelBackgroundColor=#F5F5F5;rounded=0;exitX=1;exitY=0;exitDx=0;exitDy=0;entryX=1;entryY=1;entryDx=0;entryDy=0;" parent="1" source="Gpt2D1G34cBwJIzxUsgP-63" target="Gpt2D1G34cBwJIzxUsgP-48" edge="1">
          <mxGeometry x="-0.4066" y="-8" width="160" relative="1" as="geometry">
            <mxPoint x="355" y="710" as="sourcePoint" />
            <mxPoint x="840" y="585" as="targetPoint" />
            <Array as="points">
              <mxPoint x="650" y="690" />
              <mxPoint x="850" y="650" />
              <mxPoint x="850" y="340" />
            </Array>
            <mxPoint as="offset" />
          </mxGeometry>
        </mxCell>
        <mxCell id="Gpt2D1G34cBwJIzxUsgP-65" value="Create Order" style="ellipse;whiteSpace=wrap;html=1;fillColor=#dae8fc;strokeColor=#6c8ebf;strokeWidth=1;" parent="1" vertex="1">
          <mxGeometry x="420" y="1180" width="140" height="70" as="geometry" />
        </mxCell>
        <mxCell id="Gpt2D1G34cBwJIzxUsgP-66" value="Cancel Order" style="ellipse;whiteSpace=wrap;html=1;fillColor=#dae8fc;strokeColor=#6c8ebf;strokeWidth=2;" parent="1" vertex="1">
          <mxGeometry x="145" y="1180" width="140" height="70" as="geometry" />
        </mxCell>
        <mxCell id="Gpt2D1G34cBwJIzxUsgP-67" value="&amp;lt;&amp;lt;include&amp;gt;&amp;gt;" style="edgeStyle=none;html=1;endArrow=open;verticalAlign=bottom;dashed=1;labelBackgroundColor=#F5F5F5;rounded=0;exitX=0;exitY=1;exitDx=0;exitDy=0;entryX=1;entryY=0.5;entryDx=0;entryDy=0;" parent="1" source="Gpt2D1G34cBwJIzxUsgP-42" target="Gpt2D1G34cBwJIzxUsgP-65" edge="1">
          <mxGeometry x="-0.1602" y="5" width="160" relative="1" as="geometry">
            <mxPoint x="540" y="1090" as="sourcePoint" />
            <mxPoint x="630" y="1090" as="targetPoint" />
            <mxPoint as="offset" />
            <Array as="points">
              <mxPoint x="650" y="1215" />
            </Array>
          </mxGeometry>
        </mxCell>
        <mxCell id="Gpt2D1G34cBwJIzxUsgP-68" value="&amp;lt;&amp;lt;extend&amp;gt;&amp;gt;" style="edgeStyle=none;html=1;startArrow=open;endArrow=none;startSize=12;verticalAlign=bottom;dashed=1;labelBackgroundColor=#F5F5F5;rounded=0;entryX=1;entryY=0.5;entryDx=0;entryDy=0;exitX=0;exitY=0.5;exitDx=0;exitDy=0;" parent="1" source="Gpt2D1G34cBwJIzxUsgP-65" target="Gpt2D1G34cBwJIzxUsgP-66" edge="1">
          <mxGeometry x="0.037" width="160" relative="1" as="geometry">
            <mxPoint x="560" y="850" as="sourcePoint" />
            <mxPoint x="720" y="850" as="targetPoint" />
            <Array as="points" />
            <mxPoint x="-1" as="offset" />
          </mxGeometry>
        </mxCell>
        <mxCell id="Gpt2D1G34cBwJIzxUsgP-69" value="" style="edgeStyle=none;html=1;endArrow=none;verticalAlign=bottom;rounded=0;exitX=1;exitY=0.3333333333333333;exitDx=0;exitDy=0;entryX=0;entryY=0.5;entryDx=0;entryDy=0;exitPerimeter=0;" parent="1" source="Gpt2D1G34cBwJIzxUsgP-9" target="Gpt2D1G34cBwJIzxUsgP-66" edge="1">
          <mxGeometry width="160" relative="1" as="geometry">
            <mxPoint x="30" y="875" as="sourcePoint" />
            <mxPoint x="125" y="960" as="targetPoint" />
          </mxGeometry>
        </mxCell>
        <mxCell id="Gpt2D1G34cBwJIzxUsgP-70" value="" style="edgeStyle=none;html=1;endArrow=none;verticalAlign=bottom;rounded=0;exitX=1;exitY=0.3333333333333333;exitDx=0;exitDy=0;entryX=0;entryY=0.5;entryDx=0;entryDy=0;exitPerimeter=0;" parent="1" source="Gpt2D1G34cBwJIzxUsgP-9" target="Gpt2D1G34cBwJIzxUsgP-40" edge="1">
          <mxGeometry width="160" relative="1" as="geometry">
            <mxPoint x="60" y="820" as="sourcePoint" />
            <mxPoint x="155" y="1065" as="targetPoint" />
          </mxGeometry>
        </mxCell>
        <mxCell id="Gpt2D1G34cBwJIzxUsgP-71" value="&amp;lt;&amp;lt;extend&amp;gt;&amp;gt;" style="edgeStyle=none;html=1;startArrow=open;endArrow=none;startSize=12;verticalAlign=bottom;dashed=1;labelBackgroundColor=#F5F5F5;rounded=0;exitX=0.5;exitY=1;exitDx=0;exitDy=0;entryX=0.5;entryY=0;entryDx=0;entryDy=0;" parent="1" source="Gpt2D1G34cBwJIzxUsgP-32" target="Gpt2D1G34cBwJIzxUsgP-40" edge="1">
          <mxGeometry x="0.4286" width="160" relative="1" as="geometry">
            <mxPoint x="210" y="1020" as="sourcePoint" />
            <mxPoint x="325" y="1060" as="targetPoint" />
            <mxPoint as="offset" />
          </mxGeometry>
        </mxCell>
        <mxCell id="2bNu7GahjGh4LtrzgGVd-1" value="all use cases here require an active session" style="shape=note;strokeWidth=2;fontSize=14;size=20;whiteSpace=wrap;html=1;fillColor=#fff2cc;strokeColor=#d6b656;fontColor=#666600;" vertex="1" parent="1">
          <mxGeometry x="320" y="80" width="150" height="90" as="geometry" />
        </mxCell>
      </root>
    </mxGraphModel>
  </diagram>
  <diagram id="ITI12uTtJIDv6nuf6tp2" name="Main-3">
    <mxGraphModel dx="933" dy="715" grid="1" gridSize="10" guides="1" tooltips="1" connect="1" arrows="1" fold="1" page="1" pageScale="1" pageWidth="850" pageHeight="1100" math="0" shadow="0">
      <root>
        <mxCell id="0" />
        <mxCell id="1" parent="0" />
        <mxCell id="KGEhRC0azCv8ngg9sKaL-1" value="Main-3" style="shape=note;html=1;verticalAlign=top;fontStyle=1;whiteSpace=wrap;align=center;fillColor=#F5F5F5;fontColor=#333333;strokeColor=#666666;size=0;spacingLeft=5;labelBackgroundColor=#f5f5f5;" vertex="1" parent="1">
          <mxGeometry x="110" y="40" width="760" height="510" as="geometry" />
        </mxCell>
        <mxCell id="KGEhRC0azCv8ngg9sKaL-4" value="Vendor" style="shape=umlActor;html=1;verticalLabelPosition=bottom;verticalAlign=top;align=center;fillColor=#e1d5e7;strokeColor=#9673a6;" vertex="1" parent="1">
          <mxGeometry x="40" y="330" width="30" height="60" as="geometry" />
        </mxCell>
        <mxCell id="KGEhRC0azCv8ngg9sKaL-10" value="" style="edgeStyle=none;html=1;endArrow=none;verticalAlign=bottom;rounded=0;exitX=1;exitY=0.3333333333333333;exitDx=0;exitDy=0;entryX=0;entryY=0.5;entryDx=0;entryDy=0;exitPerimeter=0;" edge="1" parent="1" source="KGEhRC0azCv8ngg9sKaL-4" target="KGEhRC0azCv8ngg9sKaL-21">
          <mxGeometry width="160" relative="1" as="geometry">
            <mxPoint x="340" y="580" as="sourcePoint" />
            <mxPoint x="510" y="645" as="targetPoint" />
          </mxGeometry>
        </mxCell>
        <mxCell id="KGEhRC0azCv8ngg9sKaL-21" value="Read Notification" style="ellipse;whiteSpace=wrap;html=1;fillColor=#dae8fc;strokeColor=#6c8ebf;strokeWidth=2;" vertex="1" parent="1">
          <mxGeometry x="145" y="200" width="140" height="70" as="geometry" />
        </mxCell>
        <mxCell id="KGEhRC0azCv8ngg9sKaL-26" value="Confirm Transfer of &lt;br&gt;Items to Courier" style="ellipse;whiteSpace=wrap;html=1;fillColor=#dae8fc;strokeColor=#6c8ebf;strokeWidth=2;" vertex="1" parent="1">
          <mxGeometry x="145" y="440" width="140" height="70" as="geometry" />
        </mxCell>
        <mxCell id="KGEhRC0azCv8ngg9sKaL-27" value="" style="edgeStyle=none;html=1;endArrow=none;verticalAlign=bottom;rounded=0;exitX=1;exitY=0.3333333333333333;exitDx=0;exitDy=0;entryX=0;entryY=0.5;entryDx=0;entryDy=0;exitPerimeter=0;" edge="1" parent="1" source="KGEhRC0azCv8ngg9sKaL-4" target="KGEhRC0azCv8ngg9sKaL-26">
          <mxGeometry width="160" relative="1" as="geometry">
            <mxPoint x="50" y="597.5" as="sourcePoint" />
            <mxPoint x="150" y="562.5" as="targetPoint" />
          </mxGeometry>
        </mxCell>
        <mxCell id="KGEhRC0azCv8ngg9sKaL-71" value="all use cases here require an active session" style="shape=note;strokeWidth=2;fontSize=14;size=20;whiteSpace=wrap;html=1;fillColor=#fff2cc;strokeColor=#d6b656;fontColor=#666600;" vertex="1" parent="1">
          <mxGeometry x="320" y="80" width="150" height="90" as="geometry" />
        </mxCell>
        <mxCell id="KGEhRC0azCv8ngg9sKaL-72" value="Register Items in Stock" style="ellipse;whiteSpace=wrap;html=1;fillColor=#dae8fc;strokeColor=#6c8ebf;strokeWidth=2;" vertex="1" parent="1">
          <mxGeometry x="145" y="280" width="140" height="70" as="geometry" />
        </mxCell>
        <mxCell id="KGEhRC0azCv8ngg9sKaL-73" value="" style="edgeStyle=none;html=1;endArrow=none;verticalAlign=bottom;rounded=0;entryX=0;entryY=0.5;entryDx=0;entryDy=0;exitX=1;exitY=0.3333333333333333;exitDx=0;exitDy=0;exitPerimeter=0;" edge="1" parent="1" source="KGEhRC0azCv8ngg9sKaL-4" target="KGEhRC0azCv8ngg9sKaL-72">
          <mxGeometry width="160" relative="1" as="geometry">
            <mxPoint x="30" y="124.41" as="sourcePoint" />
            <mxPoint x="190" y="124.41" as="targetPoint" />
          </mxGeometry>
        </mxCell>
        <mxCell id="dxpgy0Eyy_WH5sM8YF2r-1" value="View Items in Stock" style="ellipse;whiteSpace=wrap;html=1;fillColor=#dae8fc;strokeColor=#6c8ebf;strokeWidth=2;" vertex="1" parent="1">
          <mxGeometry x="145" y="360" width="140" height="70" as="geometry" />
        </mxCell>
        <mxCell id="dxpgy0Eyy_WH5sM8YF2r-2" value="" style="edgeStyle=none;html=1;endArrow=none;verticalAlign=bottom;rounded=0;entryX=0;entryY=0.5;entryDx=0;entryDy=0;exitX=1;exitY=0.3333333333333333;exitDx=0;exitDy=0;exitPerimeter=0;" edge="1" parent="1" source="KGEhRC0azCv8ngg9sKaL-4" target="dxpgy0Eyy_WH5sM8YF2r-1">
          <mxGeometry width="160" relative="1" as="geometry">
            <mxPoint x="80" y="260" as="sourcePoint" />
            <mxPoint x="240" y="260" as="targetPoint" />
          </mxGeometry>
        </mxCell>
        <mxCell id="Ntd4-JO1O1H_y7u6KWfh-1" value="Modify Items in Stock" style="ellipse;whiteSpace=wrap;html=1;fillColor=#dae8fc;strokeColor=#6c8ebf;strokeWidth=1;" vertex="1" parent="1">
          <mxGeometry x="400" y="360" width="140" height="70" as="geometry" />
        </mxCell>
        <mxCell id="Ntd4-JO1O1H_y7u6KWfh-3" value="&amp;lt;&amp;lt;extend&amp;gt;&amp;gt;" style="edgeStyle=none;html=1;startArrow=open;endArrow=none;startSize=12;verticalAlign=bottom;dashed=1;labelBackgroundColor=#F5F5F5;rounded=0;exitX=1;exitY=0.5;exitDx=0;exitDy=0;entryX=0;entryY=0.5;entryDx=0;entryDy=0;" edge="1" parent="1" source="dxpgy0Eyy_WH5sM8YF2r-1" target="Ntd4-JO1O1H_y7u6KWfh-1">
          <mxGeometry width="160" relative="1" as="geometry">
            <mxPoint x="390" y="280" as="sourcePoint" />
            <mxPoint x="550" y="280" as="targetPoint" />
          </mxGeometry>
        </mxCell>
        <mxCell id="kPOwlE95swi_QuuRi2_6-1" value="Change Item Quantity" style="ellipse;whiteSpace=wrap;html=1;fillColor=#dae8fc;strokeColor=#6c8ebf;strokeWidth=2;" vertex="1" parent="1">
          <mxGeometry x="675" y="360" width="140" height="70" as="geometry" />
        </mxCell>
        <mxCell id="kPOwlE95swi_QuuRi2_6-2" value="&amp;lt;&amp;lt;include&amp;gt;&amp;gt;" style="edgeStyle=none;html=1;endArrow=open;verticalAlign=bottom;dashed=1;labelBackgroundColor=#F5F5F5;rounded=0;exitX=1;exitY=0.5;exitDx=0;exitDy=0;entryX=0;entryY=0.5;entryDx=0;entryDy=0;" edge="1" parent="1" target="kPOwlE95swi_QuuRi2_6-1" source="Ntd4-JO1O1H_y7u6KWfh-1">
          <mxGeometry x="-0.037" width="160" relative="1" as="geometry">
            <mxPoint x="540" y="395" as="sourcePoint" />
            <mxPoint x="665" y="365.25" as="targetPoint" />
            <mxPoint as="offset" />
          </mxGeometry>
        </mxCell>
        <mxCell id="kPOwlE95swi_QuuRi2_6-3" value="Remove Items&lt;br style=&quot;border-color: var(--border-color);&quot;&gt;from Stock" style="ellipse;whiteSpace=wrap;html=1;fillColor=#dae8fc;strokeColor=#6c8ebf;strokeWidth=2;" vertex="1" parent="1">
          <mxGeometry x="675" y="440" width="140" height="70" as="geometry" />
        </mxCell>
        <mxCell id="kPOwlE95swi_QuuRi2_6-4" value="&amp;lt;&amp;lt;include&amp;gt;&amp;gt;" style="edgeStyle=none;html=1;endArrow=open;verticalAlign=bottom;dashed=1;labelBackgroundColor=#F5F5F5;rounded=0;entryX=0;entryY=0.5;entryDx=0;entryDy=0;exitX=1;exitY=0.5;exitDx=0;exitDy=0;" edge="1" parent="1" target="kPOwlE95swi_QuuRi2_6-3" source="Ntd4-JO1O1H_y7u6KWfh-1">
          <mxGeometry x="-0.1788" width="160" relative="1" as="geometry">
            <mxPoint x="540" y="395" as="sourcePoint" />
            <mxPoint x="670" y="440" as="targetPoint" />
            <mxPoint y="-1" as="offset" />
            <Array as="points">
              <mxPoint x="605" y="475" />
            </Array>
          </mxGeometry>
        </mxCell>
        <mxCell id="kPOwlE95swi_QuuRi2_6-5" value="Change Item Description" style="ellipse;whiteSpace=wrap;html=1;fillColor=#dae8fc;strokeColor=#6c8ebf;strokeWidth=2;" vertex="1" parent="1">
          <mxGeometry x="675" y="200" width="140" height="70" as="geometry" />
        </mxCell>
        <mxCell id="kPOwlE95swi_QuuRi2_6-6" value="&amp;lt;&amp;lt;include&amp;gt;&amp;gt;" style="edgeStyle=none;html=1;endArrow=open;verticalAlign=bottom;dashed=1;labelBackgroundColor=#F5F5F5;rounded=0;exitX=1;exitY=0.5;exitDx=0;exitDy=0;entryX=0;entryY=0.5;entryDx=0;entryDy=0;" edge="1" parent="1" target="kPOwlE95swi_QuuRi2_6-5" source="Ntd4-JO1O1H_y7u6KWfh-1">
          <mxGeometry x="0.039" y="-1" width="160" relative="1" as="geometry">
            <mxPoint x="540" y="395" as="sourcePoint" />
            <mxPoint x="670" y="400" as="targetPoint" />
            <mxPoint as="offset" />
            <Array as="points">
              <mxPoint x="590" y="235" />
            </Array>
          </mxGeometry>
        </mxCell>
        <mxCell id="Ls7iHwKOD_XJeU_x5Al3-1" value="Change Item Price" style="ellipse;whiteSpace=wrap;html=1;fillColor=#dae8fc;strokeColor=#6c8ebf;strokeWidth=2;" vertex="1" parent="1">
          <mxGeometry x="675" y="280" width="140" height="70" as="geometry" />
        </mxCell>
        <mxCell id="Ls7iHwKOD_XJeU_x5Al3-2" value="&amp;lt;&amp;lt;include&amp;gt;&amp;gt;" style="edgeStyle=none;html=1;endArrow=open;verticalAlign=bottom;dashed=1;labelBackgroundColor=#F5F5F5;rounded=0;exitX=1;exitY=0.5;exitDx=0;exitDy=0;entryX=0;entryY=0.5;entryDx=0;entryDy=0;" edge="1" parent="1" source="Ntd4-JO1O1H_y7u6KWfh-1" target="Ls7iHwKOD_XJeU_x5Al3-1">
          <mxGeometry x="0.3866" width="160" relative="1" as="geometry">
            <mxPoint x="550" y="405" as="sourcePoint" />
            <mxPoint x="685" y="245" as="targetPoint" />
            <mxPoint as="offset" />
            <Array as="points">
              <mxPoint x="590" y="315" />
            </Array>
          </mxGeometry>
        </mxCell>
      </root>
    </mxGraphModel>
  </diagram>
</mxfile>
